<svg xmlns="http://www.w3.org/2000/svg" width="44" height="44" viewBox="0 0 44 44">
  <g id="facebook" transform="translate(-356 -938)">
    <rect id="Rectangle_1780" data-name="Rectangle 1780" width="44" height="44" rx="22" transform="translate(356 938)" fill="#e8e8e8"/>
    <path id="facebook-2" data-name="facebook" d="M18.408,0H2.869A2.867,2.867,0,0,0,0,2.867v15.54a2.867,2.867,0,0,0,2.867,2.867h7.664l.013-7.6H8.571a.466.466,0,0,1-.466-.464L8.1,10.757a.466.466,0,0,1,.466-.468h1.971V7.921a3.868,3.868,0,0,1,4.129-4.244h2.011a.466.466,0,0,1,.466.466V6.209a.466.466,0,0,1-.466.466H15.439c-1.333,0-1.591.633-1.591,1.563v2.05h2.929a.466.466,0,0,1,.463.521l-.29,2.45a.466.466,0,0,1-.463.411H13.861l-.013,7.6h4.56a2.867,2.867,0,0,0,2.867-2.867V2.867A2.867,2.867,0,0,0,18.408,0Z" transform="translate(366.998 949)" fill="#4a4a4a"/>
  </g>
</svg>
