<svg xmlns="http://www.w3.org/2000/svg" width="44" height="44" viewBox="0 0 44 44">
  <g id="instagram" transform="translate(-278 -938)">
    <rect id="Rectangle_1779" data-name="Rectangle 1779" width="44" height="44" rx="22" transform="translate(278 938)" fill="#e8e8e8"/>
    <g id="instagram-2" data-name="instagram" transform="translate(289 949)">
      <path id="Path_9" data-name="Path 9" d="M14.936,0h-8.6A6.344,6.344,0,0,0,0,6.337v8.6a6.344,6.344,0,0,0,6.337,6.337h8.6a6.344,6.344,0,0,0,6.337-6.337v-8.6A6.344,6.344,0,0,0,14.936,0Zm4.2,14.936a4.2,4.2,0,0,1-4.2,4.2h-8.6a4.2,4.2,0,0,1-4.2-4.2v-8.6a4.2,4.2,0,0,1,4.2-4.2h8.6a4.2,4.2,0,0,1,4.2,4.2Z" transform="translate(0)" fill="#4a4a4a"/>
      <path id="Path_10" data-name="Path 10" d="M138.5,133a5.5,5.5,0,1,0,5.5,5.5A5.5,5.5,0,0,0,138.5,133Zm0,8.864a3.362,3.362,0,1,1,3.362-3.362,3.362,3.362,0,0,1-3.362,3.362Z" transform="translate(-127.868 -127.866)" fill="#4a4a4a"/>
      <ellipse id="Ellipse_6" data-name="Ellipse 6" cx="1.318" cy="1.318" rx="1.318" ry="1.318" transform="translate(14.831 3.857)" fill="#4a4a4a"/>
    </g>
  </g>
</svg>
