<svg xmlns="http://www.w3.org/2000/svg" width="44" height="44" viewBox="0 0 44 44">
  <g id="linkedin" transform="translate(-512 -938)">
    <rect id="Rectangle_1782" data-name="Rectangle 1782" width="44" height="44" rx="22" transform="translate(512 938)" fill="#e8e8e8"/>
    <path id="linkedin-2" data-name="linkedin" d="M19.953,0H1.984A1.984,1.984,0,0,0,0,1.984V19.953a1.984,1.984,0,0,0,1.984,1.984H19.953a1.984,1.984,0,0,0,1.984-1.984V1.984A1.984,1.984,0,0,0,19.953,0ZM6.788,18.942a.577.577,0,0,1-.577.577H3.753a.577.577,0,0,1-.577-.577V8.637a.577.577,0,0,1,.577-.577H6.211a.577.577,0,0,1,.577.577ZM4.982,7.088A2.335,2.335,0,1,1,7.317,4.753,2.335,2.335,0,0,1,4.982,7.088Zm14.653,11.9a.531.531,0,0,1-.531.531H16.466a.531.531,0,0,1-.531-.531V14.155c0-.721.212-3.16-1.884-3.16-1.626,0-1.955,1.669-2.022,2.418v5.575a.531.531,0,0,1-.531.531H8.947a.531.531,0,0,1-.531-.531V8.591a.531.531,0,0,1,.531-.531H11.5a.531.531,0,0,1,.531.531v.9a3.621,3.621,0,0,1,3.406-1.6c4.224,0,4.2,3.946,4.2,6.114v4.987Z" transform="translate(523 949)" fill="#4a4a4a"/>
  </g>
</svg>
