<svg xmlns="http://www.w3.org/2000/svg" width="44" height="44" viewBox="0 0 44 44">
  <g id="twitter" transform="translate(-434 -938)">
    <rect id="Rectangle_1781" data-name="Rectangle 1781" width="44" height="44" rx="22" transform="translate(434 938)" fill="#e8e8e8"/>
    <path id="twitter-2" data-name="twitter" d="M24.668,36.917a9.926,9.926,0,0,1-1.728.583,5.389,5.389,0,0,0,1.422-2.265h0a.283.283,0,0,0-.413-.329h0A9.973,9.973,0,0,1,21.307,36a.673.673,0,0,1-.165.021.7.7,0,0,1-.463-.177A5.4,5.4,0,0,0,17.1,34.491a5.778,5.778,0,0,0-1.712.264,5.236,5.236,0,0,0-3.529,3.772,5.765,5.765,0,0,0-.128,1.99.194.194,0,0,1-.049.152.2.2,0,0,1-.149.068h-.019a14.17,14.17,0,0,1-9.739-5.2h0a.283.283,0,0,0-.463.036h0a5.41,5.41,0,0,0,.879,6.569A4.843,4.843,0,0,1,.962,41.66h0a.283.283,0,0,0-.42.244h0A5.411,5.411,0,0,0,3.7,46.889H3.583a4.863,4.863,0,0,1-.91-.087h0a.283.283,0,0,0-.322.364h0a5.416,5.416,0,0,0,4.278,3.684,9.972,9.972,0,0,1-5.585,1.7H.418a.414.414,0,0,0-.4.312.428.428,0,0,0,.2.473,14.833,14.833,0,0,0,7.453,2.01,15.036,15.036,0,0,0,6.369-1.351A14.065,14.065,0,0,0,18.7,50.5a15.31,15.31,0,0,0,2.854-4.779,15.1,15.1,0,0,0,.97-5.231v-.082a.92.92,0,0,1,.344-.716,10.681,10.681,0,0,0,2.149-2.358h0a.283.283,0,0,0-.35-.415Z" transform="translate(443 915.509)" fill="#4a4a4a"/>
  </g>
</svg>
