<svg xmlns="http://www.w3.org/2000/svg" xmlns:xlink="http://www.w3.org/1999/xlink" width="1365" height="129" viewBox="0 0 1365 129">
  <defs>
    <clipPath id="clip-path">
      <rect id="Rectangle_1848" data-name="Rectangle 1848" width="1365" height="129" fill="#fff" stroke="#707070" stroke-width="1"/>
    </clipPath>
  </defs>
  <g id="ready-to-get-started-icon" opacity="0.2" clip-path="url(#clip-path)">
    <g id="Group_1288" data-name="Group 1288" transform="translate(0 -608.91)">
      <g id="Group_1287" data-name="Group 1287" transform="translate(0 0)">
        <g id="Group_1216" data-name="Group 1216" transform="translate(0 882.694)">
          <path id="Path_948" data-name="Path 948" d="M53.125,3855.739q77.066.067,154.132-.008,36.909-.017,73.819-.017c22.034,0,44.646,1.421,66.568-1.007,34.916-3.869,63.434-21.014,92.76-38.24,29.618-17.4,60.384-29.244,95.581-29.051,51.107.281,102.4,15.679,151.219,28.7,52.558,14.015,105.332,30.153,159.529,37.177,49.094,6.363,97.922-2.938,145.833-12.949,58.748-12.275,116.886-27.809,176.261-37.153,26.973-4.245,54.71-7.48,82.009-4.366,20.49,2.337,39.935,8.568,58.425,17.269,17.072,8.034,33.287,17.686,50.684,25.091,22.918,9.754,46.944,14.337,71.968,14.558" transform="translate(-53.125 -3787.414)" fill="none" stroke="#bfbfbf" stroke-miterlimit="10" stroke-width="1"/>
        </g>
        <g id="Group_1217" data-name="Group 1217" transform="translate(0 869.882)">
          <path id="Path_949" data-name="Path 949" d="M53.125,3807.809c50.755,1.147,101.488-.132,152.23-1.262,24.085-.536,48.173-.99,72.265-1.042,21.947-.048,44.382,1.906,66.172-1.027,69.154-9.31,123.7-64.8,195.235-64.216,23.62.191,47.667,4.878,70.71,9.443,26.809,5.311,53.353,11.8,79.842,18.416,52.113,13.018,104.306,27.666,157.719,34.9a265.127,265.127,0,0,0,65.192.948c27.265-2.942,54.276-7.932,81.125-13.289,58.846-11.742,117.174-26.322,176.543-35.51,27.025-4.182,54.865-7.818,82.228-4.787,20.41,2.261,39.731,8.485,58.013,17.4,16.7,8.146,32.461,17.987,49.512,25.473,22.854,10.033,46.939,14.458,72,14.546" transform="translate(-53.125 -3740.257)" fill="none" stroke="#bfbfbf" stroke-miterlimit="10" stroke-width="1"/>
        </g>
        <g id="Group_1218" data-name="Group 1218" transform="translate(0 858.283)">
          <path id="Path_950" data-name="Path 950" d="M53.125,3763.131c49.354,1.634,98.5-1.346,147.734-4.228,23.137-1.354,46.289-2.517,69.468-2.885,21.858-.347,43.984,1.68,65.673-1.267,37.3-5.069,72.313-19,107.284-31.818,17.183-6.3,34.49-12.372,52.243-17.023,16.4-4.295,34.515-8.667,51.622-8.327,23.487.468,47.347,4.864,70.369,9.014,26.16,4.716,52.125,10.382,78.05,16.164,51.16,11.41,102.337,24.034,154.448,30.79a273.9,273.9,0,0,0,65.286,1c27.272-2.866,54.333-7.5,81.267-12.458,59-10.859,117.583-24.173,177-32.818,27.042-3.935,54.989-7.767,82.334-4.72,20.152,2.245,39.142,8.527,56.976,17.742,16.115,8.327,31.192,18.426,47.7,26.065,22.511,10.416,46.437,14.743,71.33,14.766" transform="translate(-53.125 -3697.564)" fill="none" stroke="#bfbfbf" stroke-miterlimit="10" stroke-width="1"/>
        </g>
        <g id="Group_1219" data-name="Group 1219" transform="translate(0 847.714)">
          <path id="Path_951" data-name="Path 951" d="M53.125,3721.216c47.417,1.663,94.073-3.394,141.077-8.618,21.82-2.425,43.684-4.524,65.637-5.412,21.72-.88,43.5.857,65.088-1.691,40.977-4.836,80.9-15.852,120.75-25.865,19.794-4.973,39.637-9.822,59.691-13.729,17.4-3.391,36.29-7.578,54.133-7.214,23.132.471,46.612,4.33,69.415,7.815,25.309,3.867,50.493,8.458,75.65,13.147,49.785,9.279,99.562,19.415,149.959,25.147,10.848,1.234,21.825,2.517,32.751,2.864,10.7.339,21.713-.978,32.351-2,27.3-2.63,54.44-6.773,81.483-11.2,59.205-9.683,118.089-21.47,177.615-29.253,27.026-3.534,55.085-7.394,82.345-4.249a148.007,148.007,0,0,1,55.418,18.251c15.361,8.568,29.551,18.979,45.353,26.83,21.924,10.892,45.521,15.166,70.072,15.176" transform="translate(-53.125 -3658.665)" fill="none" stroke="#bfbfbf" stroke-miterlimit="10" stroke-width="1"/>
        </g>
        <g id="Group_1220" data-name="Group 1220" transform="translate(0 833.021)">
          <path id="Path_952" data-name="Path 952" d="M53.125,3668.241c45.21,1.374,88.519-6.014,132.7-14.146,20.188-3.716,40.475-6.927,60.979-8.485,21.492-1.633,42.98-.381,64.434-2.261,46.029-4.034,91.682-11.626,137.313-18.542,22.854-3.464,45.721-6.872,68.662-9.763,19.02-2.4,38.8-5.642,58.026-5.5,22.587.169,45.578,3.4,67.971,6,24.3,2.82,48.54,6.134,72.764,9.52,48.065,6.719,96.117,13.973,144.5,18.283a371.878,371.878,0,0,0,64.694.558c27.355-2.267,54.591-5.809,81.758-9.59,59.449-8.273,118.665-18.324,178.345-24.992,26.982-3.014,55.156-6.764,82.28-3.454a132.39,132.39,0,0,1,53.444,18.894c14.47,8.858,27.608,19.621,42.58,27.735,21.127,11.449,44.268,15.7,68.345,15.74" transform="translate(-53.125 -3604.581)" fill="none" stroke="#bfbfbf" stroke-miterlimit="10" stroke-width="1"/>
        </g>
        <g id="Group_1221" data-name="Group 1221" transform="translate(0 816.804)">
          <path id="Path_953" data-name="Path 953" d="M53.125,3611.183a305.822,305.822,0,0,0,70.886-6.49c17.629-3.8,34.821-9.127,52.135-14.035,18.285-5.183,36.77-9.635,55.7-11.965,21.172-2.6,42.463-1.841,63.729-2.941,52.108-2.7,104.149-6.57,156.194-10.2,26.253-1.829,52.507-3.643,78.773-5.293,20.861-1.311,42.037-3.457,62.953-3.33,45.161.274,90.716,5.432,135.675,9.159,46.073,3.82,92.139,7.885,138.307,10.5a519.237,519.237,0,0,0,64.119.138c27.427-1.809,54.775-4.668,82.078-7.726,59.722-6.689,119.29-14.844,179.165-20.208,26.915-2.412,55.2-5.949,82.159-2.417a117.028,117.028,0,0,1,51.159,19.64c13.48,9.185,25.431,20.325,39.487,28.745,20.153,12.071,42.76,16.322,66.268,16.417" transform="translate(-53.125 -3544.89)" fill="none" stroke="#bfbfbf" stroke-miterlimit="10" stroke-width="1"/>
        </g>
        <g id="Group_1222" data-name="Group 1222" transform="translate(0 800.511)">
          <path id="Path_954" data-name="Path 954" d="M53.125,3553.921c22.682.153,45.046-2.471,66.654-9.281,15.741-4.961,30.674-11.836,45.835-18.19,16.149-6.767,32.668-12.551,50.014-15.716,20.8-3.8,41.917-3.374,62.99-3.694,58.865-.895,117.744-.932,176.614-1.168,52.721-.211,105.492-1.529,158.206-1.353,87.227.292,174.548,2.754,261.764,4.306,109.005,1.939,217.319-14.024,325.9-21.132,44.653-2.924,93.254-9.487,130.667,19.234,12.426,9.539,23.1,21.064,36.183,29.822,19.037,12.74,41.075,17,63.957,17.172" transform="translate(-53.125 -3484.919)" fill="none" stroke="#bfbfbf" stroke-miterlimit="10" stroke-width="1"/>
        </g>
        <g id="Group_1223" data-name="Group 1223" transform="translate(0 783.638)">
          <path id="Path_955" data-name="Path 955" d="M53.125,3495.105c21.5-.205,42.578-3.474,62.2-12.219,13.895-6.192,26.422-14.642,39.333-22.478,13.818-8.385,28.266-15.554,44.123-19.6,20.4-5.205,41.309-4.867,62.233-4.483,124.445,2.289,248.7,14.549,373.194,14.427,83.176-.081,165.967-9.484,249.067-11.653,48.549-1.267,96.962-1.874,145.483-4.473,60.317-3.231,120.592-7.332,180.952-9.776,43.286-1.752,93.086-9.06,127.9,21.358,11.341,9.911,20.672,21.811,32.774,30.935,17.818,13.435,39.3,17.712,61.531,17.963" transform="translate(-53.125 -3422.815)" fill="none" stroke="#bfbfbf" stroke-miterlimit="10" stroke-width="1"/>
        </g>
        <g id="Group_1224" data-name="Group 1224" transform="translate(0 767.646)">
          <path id="Path_956" data-name="Path 956" d="M53.125,3438.651c20.421-.543,40.346-4.425,57.753-15.152,12.16-7.493,22.2-17.472,32.837-26.763,11.353-9.918,23.679-18.511,38.236-23.483,19.94-6.811,40.66-6.256,61.478-5.271,73.127,3.462,146.074,11.04,218.956,17.551,37.353,3.337,74.711,6.65,112.112,9.446,26.674,1.994,53.684,4.542,80.464,4.363,79.5-.532,157.325-21.812,236.383-27.6,20.668-1.512,41.248-1.3,61.955-1.439,27.721-.186,55.439-.781,83.152-1.456,60.619-1.474,121.227-3.524,181.859-4.479,14.406-.227,28.814-.387,43.222-.39,12.8,0,25.764-.388,38.425,1.724a78.357,78.357,0,0,1,43.481,22.145c10.259,10.287,18.232,22.548,29.368,32.046,16.558,14.123,37.487,18.423,59.108,18.753" transform="translate(-53.125 -3363.953)" fill="none" stroke="#bfbfbf" stroke-miterlimit="10" stroke-width="1"/>
        </g>
        <g id="Group_1225" data-name="Group 1225" transform="translate(0 745.683)">
          <path id="Path_957" data-name="Path 957" d="M53.125,3366.19c19.543-.828,38.492-5.307,53.537-17.932,10.561-8.862,18.14-20.256,26.551-30.907,8.87-11.233,19.064-21.277,32.563-27.225,19.353-8.527,40.048-7.488,60.74-6.021,80.043,5.675,159.727,16.861,239.32,26.553,40.952,4.987,81.913,9.949,122.951,14.238,28.308,2.958,57.517,7.19,86.053,6.819,38.1-.5,76.383-10.154,113.039-19.292,36.734-9.157,73.425-19.06,111.161-23.618,20.507-2.477,40.655-2.183,61.274-1.936,27.832.333,55.666.472,83.5.573,60.912.221,121.825.17,182.736.638q21.686.167,43.37.472c12.684.191,25.6-.193,38.12,2.054,16.414,2.945,30.311,10.6,41,22.956,9.216,10.66,15.865,23.234,26.071,33.123,15.275,14.8,35.763,19.108,56.806,19.5" transform="translate(-53.125 -3283.113)" fill="none" stroke="#bfbfbf" stroke-miterlimit="10" stroke-width="1"/>
        </g>
        <g id="Group_1226" data-name="Group 1226" transform="translate(0 721.236)">
          <path id="Path_958" data-name="Path 958" d="M53.125,3287.068c18.939-1.031,37.088-6.089,49.782-20.409,9.091-10.256,14.348-22.907,20.685-34.777,6.535-12.24,14.631-23.733,27.311-30.688,18.593-10.2,39.565-8.515,60.037-6.7,86.444,7.679,172.338,22.24,258.108,34.86,44.292,6.517,88.6,13.011,133.016,18.687,16.328,2.086,32.674,4.06,49.053,5.749,13.749,1.418,28.033,3.527,41.886,3.219,36.954-.821,73.706-13.471,108.008-25.615,34.4-12.18,68.71-25.351,105-31.361,20.383-3.375,40.116-2.933,60.705-2.352q41.91,1.183,83.817,2.427,91.776,2.7,183.552,5.4,21.75.628,43.5,1.235c12.591.35,25.459-.05,37.87,2.319,16,3.054,29.179,10.943,38.724,23.7,8.243,11.014,13.647,23.855,22.992,34.127,14.045,15.439,34.2,19.737,54.742,20.179" transform="translate(-53.125 -3193.127)" fill="none" stroke="#bfbfbf" stroke-miterlimit="10" stroke-width="1"/>
        </g>
        <g id="Group_1227" data-name="Group 1227" transform="translate(0 698.258)">
          <path id="Path_959" data-name="Path 959" d="M53.125,3211.885c18.639-1.122,36.173-6.691,46.714-22.431,7.761-11.589,10.94-25.315,15.443-38.234,4.509-12.936,10.618-25.807,22.688-33.738,17.7-11.629,39.265-9.292,59.386-7.261,92.062,9.295,183.391,26.93,274.54,42.124,47.247,7.876,94.508,15.732,141.922,22.624,17.184,2.5,34.392,4.868,51.644,6.895,14.094,1.656,28.894,4.127,43.129,3.764,36.258-.923,71.584-16.186,103.719-31.006,32.244-14.87,64.325-31,99.58-38.174,20.261-4.12,39.743-3.489,60.307-2.647,28.039,1.148,56.067,2.559,84.09,4.018,61.426,3.2,122.833,6.765,184.277,9.633q21.8,1.018,43.606,1.85c12.528.461,25.37.019,37.7,2.484,15.7,3.138,28.25,11.24,36.768,24.336,7.373,11.336,11.655,24.4,20.236,35.026,12.934,16.021,32.886,20.277,53.035,20.735" transform="translate(-53.125 -3108.551)" fill="none" stroke="#bfbfbf" stroke-miterlimit="10" stroke-width="1"/>
        </g>
        <g id="Group_1228" data-name="Group 1228" transform="translate(0 677.261)">
          <path id="Path_960" data-name="Path 960" d="M53.125,3142.016c18.606-1.063,35.791-6.965,44.561-23.852,6.624-12.754,8.055-27.358,11.033-41.141,2.892-13.383,7.243-27.469,18.9-36.234,16.785-12.621,39.154-9.779,58.8-7.677,44.814,4.795,89.322,12.579,133.675,20.282,51.446,8.935,102.79,18.406,154.163,27.721,49.687,9.009,99.391,18.007,149.288,25.881,17.811,2.81,35.652,5.479,53.548,7.736,14.255,1.8,29.239,4.361,43.66,4,73.529-1.823,126.414-63.051,195.562-78.9,20.125-4.614,39.637-3.787,60.135-2.782,28.124,1.379,56.219,3.273,84.3,5.262,61.628,4.363,123.206,9.443,184.881,13.159,14.552.877,29.11,1.672,43.678,2.268,12.506.512,25.343-.008,37.647,2.52,15.5,3.185,27.574,11.449,35.233,24.837,6.641,11.61,9.966,24.845,17.912,35.784,12.012,16.535,31.933,20.7,51.8,21.137" transform="translate(-53.125 -3031.269)" fill="none" stroke="#bfbfbf" stroke-miterlimit="10" stroke-width="1"/>
        </g>
        <g id="Group_1229" data-name="Group 1229" transform="translate(0 658.75)">
          <path id="Path_961" data-name="Path 961" d="M53.125,3078.808c18.754-.813,36.02-6.711,43.55-24.519,5.773-13.652,5.844-28.928,7.663-43.364,1.719-13.649,4.678-28.7,16.159-38.043,15.991-13.008,39.213-9.935,58.31-7.907,45.924,4.876,91.5,13.381,136.857,21.688,53.526,9.8,106.927,20.223,160.364,30.463,51.484,9.865,102.988,19.753,154.731,28.287,18.154,2.995,36.34,5.846,54.6,8.2,14.208,1.832,28.925,4.1,43.3,3.858,74.482-1.241,121.233-69.063,190.287-85.534,19.987-4.767,39.866-3.763,60.244-2.716,28.186,1.448,56.326,3.688,84.441,6.069,61.778,5.234,123.469,11.562,185.334,15.805,14.557,1,29.125,1.871,43.708,2.44,12.538.49,25.389-.151,37.728,2.393,15.422,3.18,27.2,11.529,34.223,25.166,6.084,11.82,8.654,25.188,16.128,36.366,11.352,16.978,31.444,20.971,51.162,21.347" transform="translate(-53.125 -2963.134)" fill="none" stroke="#bfbfbf" stroke-miterlimit="10" stroke-width="1"/>
        </g>
        <g id="Group_1230" data-name="Group 1230" transform="translate(0 643.223)">
          <path id="Path_962" data-name="Path 962" d="M53.125,3023.6c18.976-.363,36.92-5.78,43.877-24.324,5.324-14.192,4.5-29.916,5.6-44.751,1.018-13.773,3.111-29.471,14.7-39,15.446-12.7,39.4-9.684,57.917-7.864,46.216,4.541,92.075,13.488,137.625,22.065,54.823,10.323,109.5,21.345,164.221,32.156,52.489,10.371,105,20.783,157.8,29.614,31.6,5.286,64.348,11.744,96.572,11.478,37.24-.308,68.631-17.765,97.751-38.5,27.964-19.913,55.62-42.057,90.247-49.937,19.881-4.524,40.428-3.372,60.662-2.423,28.217,1.325,56.375,3.745,84.49,6.357,61.866,5.747,123.605,13,185.6,17.387,14.546,1.028,29.11,1.885,43.688,2.32,12.63.377,25.51-.429,37.956,2.082,15.449,3.116,27.183,11.443,33.846,25.289,5.749,11.946,7.823,25.4,15.031,36.719,11.033,17.324,31.512,21.062,51.21,21.334" transform="translate(-53.125 -2905.981)" fill="none" stroke="#bfbfbf" stroke-miterlimit="10" stroke-width="1"/>
        </g>
        <g id="Group_1231" data-name="Group 1231" transform="translate(0 631.639)">
          <path id="Path_963" data-name="Path 963" d="M53.125,2978.96c19.154-.857,36.213-7.3,43.937-25.291,5.989-13.948,6.342-29.525,8.306-44.3,1.778-13.375,4.5-28.656,15.912-37.75,15.817-12.6,38.5-7.767,56.821-5.056,100.766,14.906,200.592,36.234,300.7,54.7,50.234,9.265,100.522,18.365,151.026,26.171,32.711,5.055,66.708,11.469,99.98,11.205,75.89-.6,120.987-71.911,191.157-88.273,20.086-4.683,41.019-3.57,61.489-2.63,27.508,1.264,54.952,3.723,82.344,6.4,61.667,6.036,123.177,13.843,185,18.353,15.178,1.108,30.381,2,45.6,2.358,12.018.28,24.074-.346,35.917,2.052,15.392,3.117,27.521,11.123,35.112,24.459,6.658,11.7,9.712,25.1,17.6,36.182,11.712,16.45,31.461,20.676,51.072,21.3" transform="translate(-53.125 -2863.343)" fill="none" stroke="#bfbfbf" stroke-miterlimit="10" stroke-width="1"/>
        </g>
        <g id="Group_1232" data-name="Group 1232" transform="translate(0 622.64)">
          <path id="Path_964" data-name="Path 964" d="M53.125,2941.253c19.314-1.136,36.086-7.992,45.239-25.172,7.411-13.911,9.2-29.887,12.723-44.949,2.854-12.2,6.8-25.7,17.572-33.674,17.262-12.776,40.37-5.385,59.4-1.691q143.739,27.9,288.127,52.636c49.588,8.408,99.259,16.469,149.105,23.328,32.817,4.515,66.956,10.533,100.222,10.034,76.49-1.146,126.429-71.123,197.7-87.9,20.363-4.794,41.575-3.814,62.343-2.814,28.023,1.35,55.969,4.092,83.848,7.082,61.115,6.555,122.052,15.033,183.361,19.8,15.033,1.17,30.1,2.1,45.177,2.422,11.917.256,23.735-.27,35.484,2.08,15.3,3.061,28.034,10.689,36.83,23.2,7.685,10.93,12.237,23.687,20.815,34.068,12.988,15.719,32.7,20.256,52.7,21.078" transform="translate(-53.125 -2830.223)" fill="none" stroke="#bfbfbf" stroke-miterlimit="10" stroke-width="1"/>
        </g>
        <g id="Group_1233" data-name="Group 1233" transform="translate(0 610.683)">
          <path id="Path_965" data-name="Path 965" d="M53.125,2895.615c19.525-1.213,36.567-8.091,47.546-24.238,8.781-12.915,12.617-28.213,17.837-42.625,4.393-12.128,10.021-25.314,22-32.2,18.745-10.776,40.784-1.665,59.919,2.841,91.784,21.608,185.536,36.473,278.824,50.549,45.965,6.935,92.02,13.39,138.2,18.842,32.49,3.836,65.789,8.637,98.595,8.665,39.053.034,75.034-19.623,107.555-38.4,33.288-19.219,66.8-41.317,105.234-49.608,19.917-4.3,40.551-3.427,60.792-2.35,26.971,1.436,53.851,4.313,80.655,7.471,61.852,7.288,123.463,16.858,185.544,22.246,15.5,1.345,31.039,2.412,46.6,2.753,11.789.26,23.363-.141,35,2.088,15.786,3.023,29.338,10.293,39.772,22.14,8.869,10.068,15.305,21.971,25.05,31.35,14.738,14.186,34.559,18.6,54.795,19.473" transform="translate(-53.125 -2786.212)" fill="none" stroke="#bfbfbf" stroke-miterlimit="10" stroke-width="1"/>
        </g>
        <g id="Group_1234" data-name="Group 1234" transform="translate(0 599.226)">
          <path id="Path_966" data-name="Path 966" d="M53.125,2851.316c20.324-1.152,38.271-8.112,51.317-23.547,10.067-11.911,16.146-26.232,23.428-39.751,6.244-11.593,13.93-23.676,26.878-29.1,19.959-8.358,40.569,1.849,59.761,7.163,40.136,11.113,81.295,18.89,122.36,26.022,47.592,8.267,95.427,15.237,143.354,21.431,44.006,5.687,88.113,10.72,132.308,14.839,30.944,2.885,62.44,6.48,93.572,6.428,40.293-.066,78.319-19.543,112.8-37.611,36.277-19.008,72.713-41.025,113.491-49.757,20.94-4.484,42.437-3.687,63.706-2.344,27.376,1.729,54.636,5.042,81.8,8.653,60.962,8.1,121.649,18.548,182.9,24.521,15.28,1.49,30.609,2.681,45.965,3.1,12.2.336,24.233-.033,36.3,2.094a86.864,86.864,0,0,1,42.025,19.464c10.9,9.324,19.716,20.718,31.288,29.337,16.684,12.427,36.9,16.576,57.6,17.374" transform="translate(-53.125 -2744.039)" fill="none" stroke="#bfbfbf" stroke-miterlimit="10" stroke-width="1"/>
        </g>
        <g id="Group_1235" data-name="Group 1235" transform="translate(0 588.13)">
          <path id="Path_967" data-name="Path 967" d="M53.125,2807.986c21.287-.957,40.438-7.815,55.815-22.263,11.522-10.826,19.947-24.071,29.474-36.454,8.2-10.661,17.821-21.186,31.376-25.292,21.1-6.391,40.415,4.629,59.917,10.921,37.076,11.962,75.74,19.444,114.2,25.9,45.971,7.717,92.291,13.479,138.683,18.256q61.014,6.283,122.259,10.211c29.849,1.925,60.049,4.364,89.987,4.125,42.382-.337,82.98-19.814,120.14-37.506,39.461-18.789,79.179-40.583,122.656-49.407,21.006-4.263,42.315-3.661,63.61-2.138,27.535,1.969,54.923,5.7,82.2,9.76,61.314,9.115,122.291,20.833,183.965,27.57,14.989,1.637,30.036,2.956,45.115,3.464,12.156.409,24.19.094,36.258,1.863a115.58,115.58,0,0,1,47.226,17.88c12.248,8.063,23.187,17.855,35.949,25.209,18.851,10.862,39.979,14.794,61.726,15.439" transform="translate(-53.125 -2703.198)" fill="none" stroke="#bfbfbf" stroke-miterlimit="10" stroke-width="1"/>
        </g>
        <g id="Group_1236" data-name="Group 1236" transform="translate(0 577.237)">
          <path id="Path_968" data-name="Path 968" d="M53.125,2765.2c22.046-.653,42.217-7.041,59.859-19.89,13.86-10.1,25.083-22.894,37.569-34.429,10.068-9.3,21.453-17.925,35.445-20.625,22.252-4.293,40.456,7.487,60.336,14.906,35.692,13.321,73.724,20.757,111.4,26.63,41.135,6.413,82.643,10.527,124.183,13.552,66.467,4.839,133.874,8.342,200.572,7.364,44.8-.656,88.131-20.016,128.238-37.393,43.3-18.759,86.969-40.635,133.974-49.308,20.653-3.811,41.4-3.33,62.271-1.635,27.687,2.25,55.191,6.445,82.56,10.98,60.334,10,120.26,22.685,180.986,30.378,15.436,1.955,30.942,3.565,46.5,4.275,12.715.581,25.4.2,38.066,1.666a158.547,158.547,0,0,1,51.331,15.021c14.342,6.967,27.779,15.555,42.418,21.973,21,9.207,43.4,12.792,66.365,13.212" transform="translate(-53.125 -2663.104)" fill="none" stroke="#bfbfbf" stroke-miterlimit="10" stroke-width="1"/>
        </g>
        <g id="Group_1237" data-name="Group 1237" transform="translate(0 566.237)">
          <path id="Path_969" data-name="Path 969" d="M53.125,2722.128a130.447,130.447,0,0,0,63.844-17.393c15.72-8.972,29.515-20.527,44.363-30.7,12.9-8.837,27.07-16.571,43.184-17.636,23.092-1.527,40.275,11.157,60.431,19.689,32.456,13.74,67.712,21,102.618,26.086,38.09,5.551,76.6,8.224,115.076,9.615,62.333,2.254,124.924,1.339,187.278.031,47.873-1,94.54-20.637,138.118-37.928,46.177-18.323,92.8-39.553,142.264-48.2,48.326-8.454,99.379,2.3,146.873,11.044,60.5,11.141,120.527,25.159,181.522,33.663,14.517,2.024,29.106,3.707,43.753,4.543,12.764.729,25.551.319,38.3,1.355a223.307,223.307,0,0,1,56.623,12.311c16.854,5.973,33.108,13.432,50.167,18.884,22.721,7.26,46.184,10.283,70.077,10.427" transform="translate(-53.125 -2622.615)" fill="none" stroke="#bfbfbf" stroke-miterlimit="10" stroke-width="1"/>
        </g>
        <g id="Group_1238" data-name="Group 1238" transform="translate(0 555.598)">
          <path id="Path_970" data-name="Path 970" d="M53.125,2680.025c24.72.064,48.039-5.82,70.209-16.181,17.354-8.111,33.438-18.428,50.514-27.029,14.95-7.529,31.062-13.589,48.194-13.156a78.242,78.242,0,0,1,24.3,4.7c13.324,4.757,24.422,13.594,37.122,19.653,61.411,29.294,135.076,31.832,202.279,31.187,56.365-.542,112.471-6.208,168.794-7.271,50.945-.961,100.487-20.029,147.527-37.176,50.161-18.285,100.692-39.531,153.815-48.426,49.4-8.272,100.59,2.974,148.9,12.769,59.4,12.041,118.265,26.973,178.211,36.381,15.429,2.421,30.957,4.454,46.561,5.447,12.262.781,24.545.359,36.813.993a319.261,319.261,0,0,1,61.861,9.624c19.078,4.828,37.8,10.9,56.985,15.334a322.616,322.616,0,0,0,74.815,8.038" transform="translate(-53.125 -2583.457)" fill="none" stroke="#bfbfbf" stroke-miterlimit="10" stroke-width="1"/>
        </g>
        <g id="Group_1239" data-name="Group 1239" transform="translate(0 544.838)">
          <path id="Path_971" data-name="Path 971" d="M53.125,2637.594c25.592.4,50.105-4.975,73.866-13.887,20.012-7.506,39.072-17.161,59.1-24.612,16.818-6.256,34.658-10.784,52.819-8.94a86.344,86.344,0,0,1,25.023,6.531c12.936,5.5,23.323,14.784,35.549,21.5,55.735,30.635,124.506,31.613,186.8,27.75,52.165-3.236,103.981-13.059,156.246-14.342,53.406-1.311,105.586-20.2,155.44-37.06,53.412-18.058,107.185-39.012,163.272-48,49.214-7.89,99.048,3.11,146.989,13.592,60.876,13.312,121.074,30.019,182.606,40.412,14.541,2.456,29.177,4.525,43.9,5.618,12.778.948,25.552.455,38.347.849a468.373,468.373,0,0,1,67.835,7.446c20.438,3.644,40.707,8.137,61.21,11.442a453.3,453.3,0,0,0,79.383,5.736" transform="translate(-53.125 -2543.85)" fill="none" stroke="#bfbfbf" stroke-miterlimit="10" stroke-width="1"/>
        </g>
        <g id="Group_1240" data-name="Group 1240" transform="translate(0 533.852)">
          <path id="Path_972" data-name="Path 972" d="M53.125,2594.561c50.7,1.262,94.693-20.087,142.107-33.6,18.866-5.375,38.735-8.97,58.392-5.921a93.286,93.286,0,0,1,28.054,9.154c12.156,6.2,21.741,15.74,33.259,22.906,50.005,31.111,112.16,31.571,169.258,24.754,26.916-3.214,53.552-8.159,80.22-12.852,21.6-3.8,43.47-7.844,65.471-8.517,55.716-1.7,109.844-19.737,162.36-36.332,56.642-17.9,113.553-38.668,172.583-48.029,50.347-7.985,100.121,3.1,148.99,14.582,59.964,14.086,119.162,31.635,179.808,42.917,14.957,2.782,30.028,5.154,45.208,6.457,13.309,1.143,26.566.6,39.9.768a689.706,689.706,0,0,1,71.281,4.972c50.438,5.893,100.138,13.149,151.133,11.989" transform="translate(-53.125 -2503.416)" fill="none" stroke="#bfbfbf" stroke-miterlimit="10" stroke-width="1"/>
        </g>
        <g id="Group_1241" data-name="Group 1241" transform="translate(0 522.152)">
          <path id="Path_973" data-name="Path 973" d="M53.125,2549.611c53.369,1.534,101.669-19.556,152.812-30.4,20.294-4.3,41.552-6.638,62.053-2.222a97.433,97.433,0,0,1,27.213,10.337c12.524,7.039,22.064,17.612,33.809,25.707,46.582,32.1,103.861,31.856,157.831,21.453,24.2-4.666,47.967-11.108,71.886-16.916,20.044-4.867,40.517-9.692,61.263-10.381,58.481-1.943,115.487-20.265,170.946-36.854,58.762-17.577,117.819-37.865,178.78-47.166a242.471,242.471,0,0,1,71.831-.288c26.858,3.8,53.338,9.976,79.585,16.565,59.146,14.849,117.49,33.169,177.42,44.982a438.5,438.5,0,0,0,44.637,6.768c13.287,1.221,26.48.678,39.8.669,24.768-.019,49.508,1.147,74.205,2.881,53.63,3.766,106.962,8.842,160.818,7.444" transform="translate(-53.125 -2460.349)" fill="none" stroke="#bfbfbf" stroke-miterlimit="10" stroke-width="1"/>
        </g>
        <g id="Group_1242" data-name="Group 1242" transform="translate(0 510.137)">
          <path id="Path_974" data-name="Path 974" d="M53.125,2503.818c54.838,1.416,105.948-18.807,159.215-27.78,22.339-3.763,45.765-5.428,67.87.543a97.374,97.374,0,0,1,27.183,12.012c12.395,7.953,21.8,19.3,33.566,28.062a139.765,139.765,0,0,0,75.788,27.864c23.72,1.336,47.322-2.889,70.089-8.99,41.634-11.157,82.719-31.589,126.545-32.852,59.5-1.713,118.337-20.6,174.945-36.771,61.66-17.619,123.683-38.115,187.486-47.262a237.964,237.964,0,0,1,68.239-.116c27.746,3.948,55.052,10.666,82.072,17.8,59.1,15.606,117.328,34.872,177.338,47.1a397.428,397.428,0,0,0,45.648,6.978c13.142,1.115,26.27.477,39.441.4,25.442-.154,50.879.47,76.3,1.41,55.45,2.05,110.822,5,166.336,3.659" transform="translate(-53.125 -2416.126)" fill="none" stroke="#bfbfbf" stroke-miterlimit="10" stroke-width="1"/>
        </g>
        <g id="Group_1243" data-name="Group 1243" transform="translate(0 497.563)">
          <path id="Path_975" data-name="Path 975" d="M53.125,2456.525c56.557.8,110.091-19.476,165.533-26.966,22.726-3.07,46.551-4.063,68.744,2.531a94.541,94.541,0,0,1,26.962,12.863c13.444,9.322,23.457,22.444,36.375,32.46,20.16,15.632,44.107,26.248,70.138,27.662,23.111,1.255,45.848-4.369,67.408-11.9,39.536-13.812,77.547-35.872,120.566-36.96,26.217-.663,52.131-5.536,77.639-11.129,33.628-7.373,66.848-16.428,99.993-25.579,63.112-17.424,126.55-37.663,191.652-47.025a236.564,236.564,0,0,1,67.828-.373c27.56,3.9,54.651,10.751,81.425,18.045,59.377,16.176,117.771,36.344,178.132,49a384.653,384.653,0,0,0,43.9,6.956c13.063,1.193,26.105.729,39.2.627,26.948-.209,53.9.012,80.841.379,56.762.775,113.515,2.037,170.284,1.119" transform="translate(-53.125 -2369.842)" fill="none" stroke="#bfbfbf" stroke-miterlimit="10" stroke-width="1"/>
        </g>
        <g id="Group_1244" data-name="Group 1244" transform="translate(0 484.317)">
          <path id="Path_976" data-name="Path 976" d="M53.125,2407.432c57.724-.51,112.67-21.275,169.607-27.862,22.646-2.62,46.463-3.216,68.374,3.8a87.091,87.091,0,0,1,27.324,14.323c12.882,10.122,22.766,23.392,35.466,33.83,19.781,16.258,43.422,28.57,69.781,30.03,22.165,1.228,43.722-5.245,63.845-13.6,38.756-16.1,74.879-39.643,118.4-40.52,27.086-.546,53.945-5.856,80.274-11.635,32.657-7.168,64.966-15.763,97.214-24.46,64.655-17.437,129.594-37.776,196.129-47.492a236.734,236.734,0,0,1,68.54-.492c27.588,3.927,54.681,10.924,81.432,18.382,59.157,16.492,117.3,37.153,177.547,49.795,53.622,11.251,109.185,7.491,163.738,7.5q85.993.008,171.987,0" transform="translate(-53.125 -2321.088)" fill="none" stroke="#bfbfbf" stroke-miterlimit="10" stroke-width="1"/>
        </g>
        <g id="Group_1245" data-name="Group 1245" transform="translate(0 471.6)">
          <path id="Path_977" data-name="Path 977" d="M53.125,2359.757c56.827-.432,111.5-18.312,167.73-23.948,22.768-2.282,46.4-2.725,68.63,3.264a100.865,100.865,0,0,1,28.289,12.312c13.261,8.508,23.515,20.676,36.2,29.977,20.416,14.963,44.256,25.52,70.151,26.617,22.154.938,43.779-4.969,64.214-12.691,39.226-14.826,75.164-35.1,118.277-36.344,27.061-.779,54.134-5.8,80.584-11,31.98-6.288,63.7-13.786,95.33-21.515,64.431-15.742,128.519-33.588,193.746-46.094,11.763-2.255,23.857-4.911,35.835-5.819,10.982-.833,22.508.7,33.369,2.1,27.415,3.528,54.422,9.89,81.126,16.708,59.664,15.232,118.331,34.337,178.632,47.2,14.5,3.093,29.123,5.8,43.878,7.471,12.79,1.449,25.367,1.041,38.2.879,27.309-.344,54.622.053,81.925.641,57.832,1.244,115.684,3.441,173.533,1.835" transform="translate(-53.125 -2274.28)" fill="none" stroke="#bfbfbf" stroke-miterlimit="10" stroke-width="1"/>
        </g>
        <g id="Group_1246" data-name="Group 1246" transform="translate(0 461.302)">
          <path id="Path_978" data-name="Path 978" d="M53.125,2318.566c55.954-.356,110.324-15.343,165.854-20.035,22.887-1.935,46.365-2.24,68.886,2.731a121.9,121.9,0,0,1,29.254,10.3c13.578,6.94,24.247,17.86,37.033,26.017,21.159,13.5,45.268,22.252,70.8,22.878,22.268.546,44.051-4.937,64.861-12.106,20.379-7.021,40.094-15.721,60.568-22.494a201.472,201.472,0,0,1,58.09-10.273c26.716-.846,53.547-5.175,79.834-9.541,30.967-5.143,61.752-11.286,92.439-17.789,63.323-13.419,126.206-28.642,189.281-43.082,12.014-2.75,24.294-6.455,36.517-8.162,10.62-1.482,22.276-.036,32.874.979,27.26,2.611,54.233,7.908,80.934,13.68,60.211,13.017,119.516,29.785,179.95,41.858,14.6,2.917,29.286,5.545,44.08,7.374,12.815,1.585,25.2,1.155,38.068,1,27.8-.331,55.609.838,83.363,2.343,58.9,3.195,117.932,8.419,176.974,5.911" transform="translate(-53.125 -2236.376)" fill="none" stroke="#bfbfbf" stroke-miterlimit="10" stroke-width="1"/>
        </g>
        <g id="Group_1247" data-name="Group 1247" transform="translate(0 452.612)">
          <path id="Path_979" data-name="Path 979" d="M53.125,2281.687c55.111-.283,109.147-12.364,163.977-16.123,23-1.577,46.373-1.764,69.142,2.2a155.622,155.622,0,0,1,30.219,8.289c13.836,5.432,24.957,14.97,37.936,21.969,21.984,11.856,46.4,18.795,71.67,18.87,22.479.067,44.5-5.107,65.741-11.8,20.531-6.465,40.539-14.4,61.189-20.521a225.1,225.1,0,0,1,58.267-9.168c55.806-1.69,112.072-11.393,166.91-20.812,61.49-10.562,122.767-23.026,183.081-38.724,12.208-3.177,24.427-7.656,36.777-10.176,10.308-2.1,21.968-1.14,32.405-.658,27.12,1.253,54.1,5.131,80.838,9.525,60.771,9.988,120.784,23.767,181.463,34.222,14.721,2.537,29.491,4.873,44.338,6.618,12.849,1.51,25.271,1.1,38.163,1.093,28.579-.007,57.123,2.247,85.546,4.931,60.4,5.7,121.155,14.637,181.993,11.856" transform="translate(-53.125 -2204.39)" fill="none" stroke="#bfbfbf" stroke-miterlimit="10" stroke-width="1"/>
        </g>
        <g id="Group_1248" data-name="Group 1248" transform="translate(0 444.62)">
          <path id="Path_980" data-name="Path 980" d="M53.125,2246.677c54.3-.211,107.962-9.376,162.1-12.209,23.109-1.21,46.419-1.3,69.4,1.664a214.412,214.412,0,0,1,31.183,6.276c14.043,3.994,25.648,12.037,38.9,17.851,45.528,19.976,92.776,16.431,139.536,2.939,20.75-5.987,41.1-13.219,61.992-18.761a249.892,249.892,0,0,1,58.6-8.248c53.436-1.364,107.182-6.716,160.169-13.226,59.075-7.258,118.345-16.847,175.493-33.292,12.39-3.565,24.387-8.194,36.7-11.927,9.815-2.978,21.793-2.537,31.959-2.71,26.984-.461,54.012,1.714,80.819,4.467,61.314,6.3,122.081,16.562,183.131,24.753,14.851,1.992,29.724,3.866,44.641,5.334,12.892,1.269,25.521.9,38.441,1.158,29.591.582,59.067,4.168,88.328,8.226,62.19,8.625,125.13,21.8,188.275,19.3" transform="translate(-53.125 -2174.973)" fill="none" stroke="#bfbfbf" stroke-miterlimit="10" stroke-width="1"/>
        </g>
        <g id="Group_1249" data-name="Group 1249" transform="translate(0 434.998)">
          <path id="Path_981" data-name="Path 981" d="M53.125,2207.3c53.537-.141,106.764-6.38,160.224-8.3,23.208-.832,46.5-.861,69.653,1.131,10.779.927,21.519,2.3,32.148,4.265,14.209,2.631,26.331,9.089,39.908,13.679,46.97,15.879,94.884,10.942,141.937-1.523,40.533-10.737,79.517-23.868,121.969-24.629,50.788-.909,101.7-1.6,152.4-4.839,56.211-3.593,113.085-10.219,166.864-27.051,12.423-3.888,24.214-8.947,36.36-13.481,9.627-3.592,21.36-4.147,31.529-5.074,26.841-2.446,53.945-2.184,80.857-1.268,61.807,2.106,123.361,8.463,184.916,13.907,14.982,1.325,29.971,2.608,44.977,3.655,12.97.9,25.881.621,38.856,1.2,30.786,1.384,61.336,6.486,91.558,12.052,64.192,11.822,129.646,29.618,195.5,27.859" transform="translate(-53.125 -2139.556)" fill="none" stroke="#bfbfbf" stroke-miterlimit="10" stroke-width="1"/>
        </g>
        <g id="Group_1250" data-name="Group 1250" transform="translate(0 421.201)">
          <path id="Path_982" data-name="Path 982" d="M53.125,2156.729c52.82-.074,105.549-3.382,158.348-4.384,23.3-.442,46.624-.44,69.909.6,11.055.493,22.1,1.22,33.113,2.253,14.347,1.347,27.019,6.149,40.947,9.471,48.358,11.537,96.916,5.384,144.523-6.2,40.856-9.943,81-22.109,123.517-22.448,100.525-.8,204.13,16.65,301.474-16.191,12.393-4.18,23.97-9.611,35.855-14.9,9.5-4.23,20.9-5.883,31.11-7.647,26.681-4.608,53.884-6.405,80.934-7.453,62.229-2.412,124.586-.228,186.779,2.145,28.165,1.075,56.608.893,84.7,2.949,32.112,2.352,63.818,9.081,95.087,16.232,34.206,7.822,68.162,16.646,102.47,24.054,33.079,7.142,66.862,13.444,100.893,13.115" transform="translate(-53.125 -2088.775)" fill="none" stroke="#bfbfbf" stroke-miterlimit="10" stroke-width="1"/>
        </g>
        <g id="Group_1251" data-name="Group 1251" transform="translate(0 398.03)">
          <path id="Path_983" data-name="Path 983" d="M53.125,2081.028c52.157-.008,104.314-.364,156.471-.471q35.082-.073,70.165.064,17.039.081,34.077.242c5.384.052,11.055-.368,16.381.477,8.577,1.361,16.992,3.551,25.619,4.77,49.616,7.01,98.8-.185,147.2-10.99,41.175-9.193,82.541-20.525,125.148-20.367,45.3.167,90.138,9.2,135.125,13.271,49.628,4.485,100.644,3.875,147.871-13.227,12.323-4.463,23.709-10.259,35.265-16.26,9.414-4.889,20.433-7.667,30.7-10.323,26.5-6.858,53.816-10.786,81.03-13.865,62.567-7.078,125.731-9.206,188.68-10.075,28.379-.392,57.351-1.977,85.621.9,33.506,3.412,66.408,11.829,98.765,20.589,35.817,9.7,71.312,20.487,107.261,29.73,33.988,8.738,68.926,16.8,104.278,17.125" transform="translate(-53.125 -2003.485)" fill="none" stroke="#bfbfbf" stroke-miterlimit="10" stroke-width="1"/>
        </g>
        <g id="Group_1252" data-name="Group 1252" transform="translate(0 370.338)">
          <path id="Path_984" data-name="Path 984" d="M53.125,1993.209c51.556.057,103.052,2.661,154.594,3.442,23.473.356,46.957.322,70.421-.469q17.535-.591,35.042-1.769c5.617-.383,11.424-1.32,17.055-1.048,8.668.418,17.31,1.661,26,2.069,50.664,2.381,100.505-5.712,149.879-15.778,41.486-8.458,84.069-18.98,126.779-18.286,42.838.7,84.6,14.562,126.318,22.459,46.107,8.728,93.792,11.07,138.2-6.179,12.243-4.756,23.472-10.953,34.675-17.616,9.35-5.561,19.985-9.434,30.283-13,26.3-9.1,53.732-15.167,81.125-20.276,62.823-11.718,126.779-18.162,190.582-22.3,28.652-1.856,57.958-4.832,86.543-1.145,34.91,4.5,69,14.605,102.443,24.945,37.428,11.573,74.462,24.319,112.052,35.4,34.885,10.287,70.974,20.134,107.663,21.135" transform="translate(-53.125 -1901.559)" fill="none" stroke="#bfbfbf" stroke-miterlimit="10" stroke-width="1"/>
        </g>
        <g id="Group_1253" data-name="Group 1253" transform="translate(0 343.106)">
          <path id="Path_985" data-name="Path 985" d="M53.125,1906.623c51.023.12,101.761,5.691,152.718,7.355a685.31,685.31,0,0,0,70.676-1q18.066-1.278,36.007-3.781c5.87-.825,11.807-2.235,17.729-2.573,8.753-.5,17.593-.229,26.363-.613,51.433-2.256,102-11.146,152.465-20.457,41.8-7.712,85.515-17.325,128.328-16.106,40.841,1.162,79.539,19.707,117.855,31.38,42.531,12.957,86.794,18.162,128.878.6,22.611-9.436,41.5-24.883,64.034-34.609,26.085-11.258,53.627-19.387,81.2-26.462,63-16.164,127.722-26.8,192.445-34.058,28.952-3.248,58.414-7.495,87.409-3.055,36.266,5.554,71.494,17.282,105.971,29.125,38.988,13.391,77.513,28.026,116.693,40.9,35.719,11.737,72.912,23.321,110.883,24.949" transform="translate(-53.125 -1801.326)" fill="none" stroke="#bfbfbf" stroke-miterlimit="10" stroke-width="1"/>
        </g>
        <g id="Group_1254" data-name="Group 1254" transform="translate(0 316.964)">
          <path id="Path_986" data-name="Path 986" d="M53.125,1822.958c50.563.182,100.436,8.725,150.841,11.268a454.43,454.43,0,0,0,70.932-1.536q18.626-1.981,36.972-5.792c15.052-3.128,29.83-5.359,45.1-7.358,51.884-6.8,103.268-16.43,154.866-24.919,22.612-3.72,45.284-7.165,68.075-9.7,20.208-2.248,41.25-4.816,61.634-4.024,39.473,1.533,75.147,24.508,110.081,39.767,38.976,17.024,79.915,24.979,120.25,6.838,22.76-10.236,41.1-27.184,63.269-38.527,25.871-13.238,53.5-23.292,81.24-32.2,63.126-20.26,128.555-34.816,194.23-44.9,29.223-4.489,58.739-9.779,88.161-4.687,37.517,6.493,73.784,19.735,109.2,32.951,40.447,15.093,80.365,31.493,121.032,46.041,36.438,13.035,74.643,26.255,113.773,28.372" transform="translate(-53.125 -1705.102)" fill="none" stroke="#bfbfbf" stroke-miterlimit="10" stroke-width="1"/>
        </g>
        <g id="Group_1255" data-name="Group 1255" transform="translate(0 292.289)">
          <path id="Path_987" data-name="Path 987" d="M53.125,1743.227c50.181.243,99.075,11.761,148.965,15.181a342.628,342.628,0,0,0,71.188-2.069c28.561-4.02,55.884-13.258,84-19.281,52.015-11.143,104.269-21.507,156.99-29.053,22.875-3.274,45.838-6,68.877-7.942,20.344-1.716,41.52-4.036,61.963-3.1,38.822,1.769,71.589,28.817,103.341,47.353,16.427,9.59,33.932,18.322,53.017,21.6,20.555,3.53,41.1-.315,59.644-9.329,22.967-11.166,40.805-29.524,62.742-42.331,25.657-14.978,53.34-26.729,81.221-37.254a1158.056,1158.056,0,0,1,195.9-54.373c15.6-2.913,31.295-5.476,47.073-7.343a133.16,133.16,0,0,1,41.668,1.437c38.609,7.244,75.774,21.838,111.983,36.247,41.754,16.615,82.917,34.6,124.917,50.644,36.985,14.127,76.074,28.834,116.168,31.21" transform="translate(-53.125 -1614.281)" fill="none" stroke="#bfbfbf" stroke-miterlimit="10" stroke-width="1"/>
        </g>
        <g id="Group_1256" data-name="Group 1256" transform="translate(0 270.046)">
          <path id="Path_988" data-name="Path 988" d="M53.125,1670.015c49.881.3,97.676,14.8,147.088,19.094a276.741,276.741,0,0,0,71.444-2.6c29.669-5.161,57.163-16.909,85.868-25.34a974.227,974.227,0,0,1,158.744-32.751c23.087-2.763,46.274-4.694,69.5-5.969,20.48-1.125,41.625-2.961,62.14-2,38.9,1.825,69,32.432,97.978,53.872,14.708,10.881,30.685,21.31,48.949,25.583,19.856,4.646,39.8.373,57.513-8.954,23.2-12.217,40.649-31.878,62.532-45.981,25.448-16.4,53.156-29.548,81.125-41.41a1068.008,1068.008,0,0,1,197.411-62.009c15.657-3.276,31.435-6.136,47.331-8.1a128.144,128.144,0,0,1,41.763,1.528c39.486,7.73,77.366,23.466,114.167,38.834,42.86,17.9,85.07,37.235,128.2,54.532,37.3,14.958,77.113,30.96,117.9,33.267" transform="translate(-53.125 -1532.41)" fill="none" stroke="#bfbfbf" stroke-miterlimit="10" stroke-width="1"/>
        </g>
        <g id="Group_1257" data-name="Group 1257" transform="translate(0 250.856)">
          <path id="Path_989" data-name="Path 989" d="M53.125,1604.988c49.666.365,96.237,17.831,145.211,23.006a233.379,233.379,0,0,0,71.7-3.136c30.879-6.364,58.4-20.495,87.661-31.312a629.942,629.942,0,0,1,160.037-35.905c23.235-2.167,46.562-3.216,69.894-3.729,20.591-.453,41.542-1.517,62.126-.661,39.673,1.65,67.479,35.066,94.337,59.055,13.314,11.892,28.032,23.819,45.755,28.887,19.482,5.571,39.142.508,56.242-9.246,23.444-13.373,40.669-34.221,62.72-49.441,25.252-17.43,52.94-31.6,80.933-44.438,63.241-29.009,130.392-52.389,198.729-67.353,29.336-6.423,59.266-12.412,89.161-6.546,40.091,7.867,78.467,24.494,115.6,40.536,43.714,18.882,86.72,39.279,130.729,57.528,37.312,15.472,77.677,32.544,118.816,34.347" transform="translate(-53.125 -1461.777)" fill="none" stroke="#bfbfbf" stroke-miterlimit="10" stroke-width="1"/>
        </g>
        <g id="Group_1258" data-name="Group 1258" transform="translate(0 234.8)">
          <path id="Path_990" data-name="Path 990" d="M53.125,1548.359c49.538.427,94.759,20.86,143.335,26.919a202.655,202.655,0,0,0,71.955-3.669c32.142-7.622,59.589-24.01,89.364-37.176,50.771-22.45,105.122-34.891,160.775-38.4,43.742-2.762,88.108-1.492,131.9-.215,41.107,1.2,67.126,36.343,92.762,62.636,12.318,12.633,26.134,25.8,43.611,31.378,19.524,6.237,39.272-.026,56-10.339,23.7-14.611,40.9-36.538,63.383-52.672,25.076-17.99,52.688-32.724,80.627-46.111,63.217-30.291,130.8-55.195,199.814-69.946,29.059-6.212,59.305-11.239,88.888-5.691,40.364,7.57,78.984,24.8,116.145,41.177,44.266,19.507,87.767,40.616,132.353,59.451,36.953,15.611,77.7,33.5,118.739,34.255" transform="translate(-53.125 -1402.676)" fill="none" stroke="#bfbfbf" stroke-miterlimit="10" stroke-width="1"/>
        </g>
        <g id="Group_1259" data-name="Group 1259" transform="translate(0 222.03)">
          <path id="Path_991" data-name="Path 991" d="M53.125,1500.542c49.168.371,95.117,17.951,143.527,23.445a228.7,228.7,0,0,0,73.443-3.182c31.348-6.664,59.4-21.3,89.215-32.2a633.381,633.381,0,0,1,160.732-35.863c22.026-1.985,44.134-2.929,66.246-3.375,21.386-.431,43.1-1.363,64.476-.581,40.184,1.47,67.428,35.753,93.969,60.469,12.632,11.763,26.507,23.533,43.4,29.084,19.747,6.488,39.86,1.415,57.26-8.658,22.843-13.223,40.272-33.344,61.723-48.475,24.615-17.363,51-32.424,77.9-46.229,61.825-31.724,128.37-58.515,197.152-72.23,31.592-6.3,64.981-10.119,96.913-3.917,39.7,7.711,77.592,24.691,114.108,41.033,42.951,19.221,85.137,40.026,128.458,58.479,36.87,15.705,77.15,32.941,118.1,33.915" transform="translate(-53.125 -1355.674)" fill="none" stroke="#bfbfbf" stroke-miterlimit="10" stroke-width="1"/>
        </g>
        <g id="Group_1260" data-name="Group 1260" transform="translate(0 211.276)">
          <path id="Path_992" data-name="Path 992" d="M53.125,1458.13c48.962.318,95.61,15.2,144.007,20a264.338,264.338,0,0,0,75.139-2.823c29.4-5.543,56.718-17.583,85.28-25.944,52.685-15.423,106.529-27.081,161.211-33.489,22.148-2.6,44.391-4.358,66.669-5.5,20.838-1.067,42.079-2.472,62.952-1.883,40.113,1.131,69.239,33.787,97.381,57.229,13.657,11.376,28.486,22.579,45.916,27.921,20.032,6.14,40.374,2.165,58.444-7.533,12.127-6.509,22.762-15.054,32.964-24.055,8.937-7.885,19.416-14.486,29.352-21.147,24.82-16.64,50.582-31.994,77-46.164,60.742-32.583,126.262-60.491,194.928-72.791,34.683-6.213,71.858-8.754,106.569-1.216,36.684,7.967,71.488,23.849,105.221,39.458,40.522,18.751,80.268,39.066,121.2,56.984,35.5,15.539,74.209,32.09,113.827,33.007" transform="translate(-53.125 -1316.092)" fill="none" stroke="#bfbfbf" stroke-miterlimit="10" stroke-width="1"/>
        </g>
        <g id="Group_1261" data-name="Group 1261" transform="translate(0 201.991)">
          <path id="Path_993" data-name="Path 993" d="M53.125,1419.654c49.513.27,97.433,12.858,146.573,16.745a313.116,313.116,0,0,0,72.4-2.234,300.983,300.983,0,0,0,37.516-8.312c15.871-4.576,31.4-8.9,47.6-12.4,53.484-11.563,107.21-22.48,161.478-30.061,41.329-5.774,83.96-10.719,125.8-10.115,79.185,1.143,123.893,114.616,209.63,75.175,13.46-6.192,24.269-15.183,35.866-23.986,9.527-7.232,20.607-13.074,30.761-19.46,24.211-15.23,48.593-30.216,73.618-44.179,60.282-33.635,125.159-62.509,194.288-73.781,36.775-6,76.837-7.731,113.477.26,34.127,7.443,66.379,22.837,97.423,37.951,38.008,18.5,75.162,38.652,113.675,56.188,32.583,14.836,68.125,30.155,104.778,30.79" transform="translate(-53.125 -1281.914)" fill="none" stroke="#bfbfbf" stroke-miterlimit="10" stroke-width="1"/>
        </g>
        <g id="Group_1262" data-name="Group 1262" transform="translate(0 193.828)">
          <path id="Path_994" data-name="Path 994" d="M53.125,1384.189c49.308.217,97.635,10.082,146.7,13.3a388.726,388.726,0,0,0,73.087-1.654,347.824,347.824,0,0,0,37.287-6.705c7.294-1.723,14.5-4.248,21.918-5.349,8.752-1.3,17.562-2.3,26.327-3.521,53.06-7.4,105.69-17.121,158.552-25.658,40.863-6.6,83.231-13.446,124.811-12.571,40.827.858,74.468,29.516,106.744,50.183,16.561,10.6,34.062,20.683,53.448,25.6a94.6,94.6,0,0,0,60.69-4.915c12.19-5.185,22.626-12.57,33.235-20.221,9.956-7.18,22.2-12.317,32.84-18.553,24.753-14.5,49.018-29.767,73.907-44.06,61.233-35.166,126.908-64.971,198.147-74.485,37.983-5.073,79.771-5.71,117.3,3.047,31.307,7.306,60.554,22.408,88.634,37.188,33.466,17.614,66.107,36.715,100.2,53.2,29.132,14.09,61,28.207,94.2,28.427" transform="translate(-53.125 -1251.871)" fill="none" stroke="#bfbfbf" stroke-miterlimit="10" stroke-width="1"/>
        </g>
        <g id="Group_1263" data-name="Group 1263" transform="translate(0 186.784)">
          <path id="Path_995" data-name="Path 995" d="M53.125,1351.72c50.1.167,99.646,7.71,149.614,10.023a510.675,510.675,0,0,0,72.148-1.387q17.75-1.694,35.305-4.848c7.147-1.286,14.324-3.394,21.579-3.891,8.995-.616,18.036-.781,27.039-1.349,53.315-3.362,105.746-11.9,158.181-21.422,39.5-7.176,80.166-15.119,120.561-14.4,41.756.744,77.954,27.256,112.678,46.51,37.02,20.527,78.027,36.217,120.32,20.628,12.329-4.544,22.733-11.351,33.688-18.284,10.677-6.757,23.57-11.084,34.751-17.172,24.1-13.122,47.211-27.858,70.78-41.825,61.929-36.7,127.715-67.4,200.717-75.839a392.51,392.51,0,0,1,72.954-1.494c17.238,1.231,35.3,2.556,52.089,6.88,27.96,7.2,53.7,21.925,78.261,36.255,27.936,16.3,55.118,33.85,83.762,49,25.319,13.392,54.309,27.462,83.965,26.648" transform="translate(-53.125 -1225.941)" fill="none" stroke="#bfbfbf" stroke-miterlimit="10" stroke-width="1"/>
        </g>
        <g id="Group_1264" data-name="Group 1264" transform="translate(0 179.503)">
          <path id="Path_996" data-name="Path 996" d="M53.125,1318.617c50.1.112,99.969,5.044,150.012,6.62,24.348.767,48.731.669,73.044-.9q17.632-1.135,35.171-3.289c7.251-.9,14.5-2.507,21.808-2.21,9.24.376,18.471.747,27.721.841,52.351.537,103.589-6.437,154.7-16.782,38.349-7.763,77.3-16.636,116.737-16.215,43.225.461,82.143,24.859,119.631,42.759,39.7,18.956,83.458,34.385,127.615,20.344,12.55-3.99,22.91-10.741,34.458-16.613,10.732-5.457,22.756-8.776,33.626-14.2,25.782-12.861,49.882-28.648,74.394-43.571,60.217-36.66,123.688-66.435,195.366-74.066a418.884,418.884,0,0,1,82.436-.332c17.078,1.562,35.174,2.921,51.723,7.564,23.437,6.575,44.6,20.036,64.557,33.182,24.053,15.839,47.185,33.035,72.063,47.688,21.276,12.532,46.115,25.355,71.849,24.065" transform="translate(-53.125 -1199.142)" fill="none" stroke="#bfbfbf" stroke-miterlimit="10" stroke-width="1"/>
        </g>
        <g id="Group_1265" data-name="Group 1265" transform="translate(0 172.025)">
          <path id="Path_997" data-name="Path 997" d="M53.125,1284.987c50.145.056,100.235,2.452,150.366,3.248,24.661.392,49.332.367,73.985-.428q17.524-.565,35.023-1.659c5.642-.356,11.484-1.286,17.141-1.053,10.31.424,20.78,2.663,31.094,3.544,51.456,4.394,101.786-.594,151.952-11.781,38.422-8.568,77.128-19.114,116.94-18.188,44.369,1.032,85.6,23.252,125.524,39.549,42.042,17.164,88.1,31.7,133.766,19.442a147.394,147.394,0,0,0,32.042-13.025c5.96-3.235,13.024-4.464,19.452-6.784,6.492-2.343,12.845-5.037,19.071-7.971,24.908-11.739,47.8-27.068,70.9-41.733,26.969-17.12,54.438-33.59,83.948-46.374a364.545,364.545,0,0,1,114.195-28.732,444.8,444.8,0,0,1,82.228,1.064c18.264,1.85,38.434,3.189,56.038,8.922,19.765,6.436,36.969,19.2,53.048,31.653,19.179,14.848,37.392,30.941,57.573,44.553,17.411,11.744,38.16,23.249,60.2,21.538" transform="translate(-53.125 -1171.618)" fill="none" stroke="#bfbfbf" stroke-miterlimit="10" stroke-width="1"/>
        </g>
        <g id="Group_1266" data-name="Group 1266" transform="translate(0 163.914)">
          <path id="Path_998" data-name="Path 998" d="M53.125,1249.659q77.016,0,154.031-.092,34.978-.014,69.955.011,18.26.016,36.52.049c5.74.01,11.747-.4,17.422.519,9.88,1.606,19.618,4.088,29.522,5.67,50.886,8.126,100.778,5.252,150.6-6.985,37.3-9.161,74.066-20.556,113.011-19.92,45.642.745,89.053,20.392,131.2,35.2,45.3,15.917,94.5,30.433,142.914,19.75,11.542-2.547,22.076-6.762,32.83-11.387,5.346-2.3,11.379-3.067,16.979-4.746a177.057,177.057,0,0,0,19.648-7.238c24.978-10.853,47.376-26.435,69.756-41.477,26.222-17.625,52.842-34.762,81.9-47.785,35.065-15.713,72.583-24.867,111.068-28.111,30.4-2.562,61.114-1.305,91.366,2.215,14.97,1.742,29.877,4.056,44.7,6.739a65.55,65.55,0,0,1,11.859,3.162c16.488,6.3,30.106,18.487,42.589,30.276,14.431,13.63,27.879,28.313,43.386,40.847,14.151,11.438,31.532,22.041,50.813,19.98" transform="translate(-53.125 -1141.764)" fill="none" stroke="#bfbfbf" stroke-miterlimit="10" stroke-width="1"/>
        </g>
        <g id="Group_1267" data-name="Group 1267" transform="translate(0 154.894)">
          <path id="Path_999" data-name="Path 999" d="M53.125,1211.894c51.368-.062,102.678-2.616,154.03-3.445,24.14-.389,48.292-.381,72.422.458q17.321.6,34.61,1.811c16.51,1.177,31.609,6.391,47.66,10.06,49.954,11.419,99.146,10.734,148.463-2.684,36.1-9.821,70.858-22.025,108.907-21.584,47.361.548,93.167,18.086,137.8,31.493,47.477,14.258,98.308,27.944,148.38,19.827a160.935,160.935,0,0,0,33.527-9.173c6.06-2.4,12.8-2.945,19.14-4.64a149.711,149.711,0,0,0,19.793-6.848c24-10.177,44.969-25.736,65.757-40.878,23.769-17.314,47.833-34.29,74.521-47.25,36.644-17.8,76.894-27.409,117.789-29.765a492.185,492.185,0,0,1,93.768,4.083c15.014,2.019,30.134,4.209,44.939,7.371a51.061,51.061,0,0,1,9.823,3.077c14.19,6.188,24.987,18.119,34.584,29.565,18.182,21.686,40.258,60.566,74.63,56.06" transform="translate(-53.125 -1108.563)" fill="none" stroke="#bfbfbf" stroke-miterlimit="10" stroke-width="1"/>
        </g>
        <g id="Group_1268" data-name="Group 1268" transform="translate(0 144.384)">
          <path id="Path_1000" data-name="Path 1000" d="M53.125,1170.136c52-.127,103.777-5.179,155.719-6.807a709.671,709.671,0,0,1,73.2,1c10.938.788,21.851,1.926,32.7,3.5,16.876,2.447,32.17,9.22,48.445,14.007,27.375,8.052,55.934,13.15,84.643,12.209,20.647-.677,40.832-4.7,60.52-10.581C543.7,1172.9,576.9,1159.32,614.6,1159.647c49.019.425,96.97,15.849,143.9,27.871,50.05,12.821,102.86,25.7,155.019,19.6,12.418-1.452,23.77-4.772,35.77-7.844,12.742-3.261,24.974-4.572,37.206-9.826,22.575-9.7,41.61-25.344,60.3-40.614,22.053-18.021,44.386-35.735,69.951-49,34.591-17.948,73.062-26.894,112.125-29.243,32.583-1.96,65.359.308,97.627,4.794,16.137,2.243,32.579,4.563,48.4,8.352a45.41,45.41,0,0,1,9.316,3.236c12.155,5.9,20.667,16.914,27.876,27.683,14.289,21.346,29.267,58.38,61.9,53.807" transform="translate(-53.125 -1069.879)" fill="none" stroke="#bfbfbf" stroke-miterlimit="10" stroke-width="1"/>
        </g>
        <g id="Group_1269" data-name="Group 1269" transform="translate(0 132.088)">
          <path id="Path_1001" data-name="Path 1001" d="M53.125,1123.588c52.559-.193,104.639-7.722,157.073-10.165,24.042-1.12,48.213-1.153,72.164,1.4a294.135,294.135,0,0,1,32.387,5.216c17.106,3.785,32.48,11.9,48.88,17.784,27.281,9.786,56.171,16.7,85.447,16.257,19.939-.3,39.367-4.33,58.172-10.559,34.568-11.45,66.209-26.452,103.625-26.2,51.05.348,101.42,14.03,150.885,24.785,52.205,11.35,106.559,23.156,160.416,18.922,11.748-.924,22.822-3.368,34.325-5.558,12.092-2.3,23.246-3.418,34.673-8.356,20.809-8.993,37.368-24.563,53.3-39.888,19.427-18.689,38.934-37.279,62.468-51.2,32.9-19.462,70.769-28.456,109.043-30.734,33.6-2,67.507.643,100.719,5.62,16.448,2.465,33.2,4.863,49.319,8.913a48.224,48.224,0,0,1,9.7,3.42c12.088,5.958,19.921,17.105,26.187,28.329,12.3,22.033,22.694,55.111,55.146,51.013" transform="translate(-53.125 -1024.618)" fill="none" stroke="#bfbfbf" stroke-miterlimit="10" stroke-width="1"/>
        </g>
        <g id="Group_1270" data-name="Group 1270" transform="translate(0 117.595)">
          <path id="Path_1002" data-name="Path 1002" d="M53.125,1071.153c53.639-.265,106.445-10.446,159.876-13.609,23.046-1.364,46.3-1.407,69.2,1.755a215.743,215.743,0,0,1,32.043,6.834c17.179,5.114,32.457,14.348,48.877,21.282,27.267,11.516,56.608,20.422,86.635,20.544,19.325.078,38.1-3.93,56.109-10.5,16.616-6.064,32.438-13.968,49.095-19.935a156.691,156.691,0,0,1,54.856-9.323c51.509.4,102.78,12.076,153.133,21.373,53.427,9.865,108.081,20.451,162.742,19.067a265.414,265.414,0,0,0,34.509-3.113c11.949-1.876,23.183-2.678,34.283-7.922,19.509-9.216,33.239-26.222,46.355-42.336,15.21-18.687,30.744-37.137,50.859-51.178,30.332-21.172,67.27-30.06,104.21-32.218,32.715-1.911,65.632.969,97.947,5.828,17.79,2.675,35.779,5.578,53.239,9.865a58.347,58.347,0,0,1,11.085,3.845c12.534,5.931,21.023,16.608,27.537,28.2,6.464,11.5,11.1,24.137,19.134,34.776,9.417,12.475,23.05,17.74,38.924,16.292" transform="translate(-53.125 -971.275)" fill="none" stroke="#bfbfbf" stroke-miterlimit="10" stroke-width="1"/>
        </g>
        <g id="Group_1271" data-name="Group 1271" transform="translate(0 100.466)">
          <path id="Path_1003" data-name="Path 1003" d="M53.125,1011.649c53.416-.331,105.622-12.612,158.7-16.792,24.294-1.913,48.994-2.141,73.03,2.25a167.006,167.006,0,0,1,31.453,8.875c15.808,6.257,30.04,15.82,45.293,23.214,27.38,13.274,57.342,24.391,88.344,25.185,19.729.505,38.747-3.867,56.8-11.335,15.931-6.59,30.923-15.1,46.9-21.6a137.908,137.908,0,0,1,53.306-10.587c52.606.237,105.161,10.056,156.92,18.142,55.2,8.624,110.992,18.236,167.048,19.195,10.815.185,21.65,0,32.431-.894,10.991-.908,21.3-1.743,31.093-7.14,16.727-9.223,26.1-26.705,34.888-42.486,11.128-19.979,22.564-39.92,40.3-55.262,25.833-22.351,60.233-31.137,94.164-33.452,32.546-2.221,65.342.839,97.475,5.81,18.793,2.907,38.1,6.014,56.47,10.882a87.337,87.337,0,0,1,12.408,4.228c14.506,6.291,25.361,17.028,34,29.686,7.958,11.664,14.063,24.721,23.855,35.142,12.289,13.079,29.151,17.636,47.1,16.812" transform="translate(-53.125 -908.226)" fill="none" stroke="#bfbfbf" stroke-miterlimit="10" stroke-width="1"/>
        </g>
        <g id="Group_1272" data-name="Group 1272" transform="translate(0 80.239)">
          <path id="Path_1004" data-name="Path 1004" d="M53.125,943.841c54.2-.4,106.714-15.173,160.433-20.166,24.253-2.254,49.1-2.546,72.959,2.838,28.95,6.533,51.2,23.953,76.829,37.541,27.173,14.407,57.359,27.1,88.831,28.046,19.154.576,37.473-4.042,54.671-11.951,16.113-7.41,30.964-17.108,47.092-24.491,16.466-7.538,33.676-11.781,51.951-11.815,52.972-.1,106.247,8.234,158.6,15.127,56.209,7.4,112.489,15.875,169.132,19.545,10.978.711,22.033,1.353,33.041,1.228,8.476-.1,16.777-1.3,23.8-6.2,14.354-10.026,18.1-29.727,22.256-45.191,5.4-20.073,11.266-40.523,24.767-57.13,20.475-25.185,53.627-34.332,85.477-36.695,30.51-2.263,61.29.888,91.4,5.519,25.346,3.9,52.448,7.688,76.416,17.138,17.88,7.049,32.791,18.333,45.582,32.148,11.065,11.951,20.659,25.333,33.543,35.609,17.713,14.128,39.443,18.66,62.008,18.9" transform="translate(-53.125 -833.775)" fill="none" stroke="#bfbfbf" stroke-miterlimit="10" stroke-width="1"/>
        </g>
        <g id="Group_1273" data-name="Group 1273" transform="translate(0 76.016)">
          <path id="Path_1005" data-name="Path 1005" d="M53.125,918.936c53.974-.375,106.463-14.157,160.016-18.809,24.28-2.109,49.081-2.368,73.018,2.647,28.592,5.99,50.681,22.056,76.176,34.993,26.94,13.67,56.6,25.265,87.423,26.133,19.214.541,37.723-3.784,55.264-11.13,16.463-6.895,31.843-15.947,48.318-22.817,16.768-6.992,34.249-11.049,52.572-11.006,52.834.122,105.947,8.2,158.2,14.907,55.844,7.168,111.733,15.3,167.968,19.069,17.313,1.16,41.166,5.775,56.513-4.385,13.927-9.219,18.238-27.462,22.712-42.122,5.733-18.784,11.874-37.852,24.977-53.242,19.963-23.446,51.392-32.008,81.66-34.235,28.782-2.118,57.809.783,86.228,5.091,24.544,3.721,50.272,7.7,73.808,15.8,18.639,6.409,34.939,16.728,49.589,29.434,12.707,11.021,24.291,23.372,38.542,32.624,19.679,12.776,42.382,16.955,65.8,17.051" transform="translate(-53.125 -818.232)" fill="none" stroke="#bfbfbf" stroke-miterlimit="10" stroke-width="1"/>
        </g>
        <g id="Group_1274" data-name="Group 1274" transform="translate(0 72.267)">
          <path id="Path_1006" data-name="Path 1006" d="M53.125,895.3c53.736-.345,106.19-13.076,159.565-17.365,24.31-1.954,49.064-2.179,73.082,2.444a159.3,159.3,0,0,1,29.714,8.676c15.969,6.469,30.322,16.168,45.8,23.631,26.7,12.871,55.814,23.342,85.974,24.128,19.289.5,38-3.517,55.882-10.276,34.2-12.923,64.786-31.4,102.778-31.222,52.355.246,104.952,7.915,156.777,14.324,55.127,6.818,110.286,14.509,165.764,18.165,11.1.732,22.277,1.458,33.408,1.43,8.041-.02,15.957-1.055,22.9-5.231,13.7-8.236,18.959-24.825,24.063-38.659,6.416-17.39,13.157-34.92,26.075-48.932,19.849-21.53,49.8-29.358,78.649-31.366,27.166-1.891,54.533.8,81.36,4.831,23.695,3.56,48.177,7.634,71.18,14.447,19.383,5.74,36.953,15.059,53.3,26.521,14.283,10.016,27.743,21.222,43.288,29.449,21.411,11.331,45.006,15.109,69.224,15" transform="translate(-53.125 -804.432)" fill="none" stroke="#bfbfbf" stroke-miterlimit="10" stroke-width="1"/>
        </g>
        <g id="Group_1275" data-name="Group 1275" transform="translate(0 68.558)">
          <path id="Path_1007" data-name="Path 1007" d="M53.125,871.774c53.5-.315,105.915-11.993,159.114-15.922,24.339-1.8,49.051-1.99,73.145,2.241a173.94,173.94,0,0,1,29.94,7.955C331,871.809,345.1,880.82,360.246,887.715c26.449,12.04,55.032,21.416,84.525,22.122,19.378.464,38.282-3.25,56.5-9.422,34.827-11.8,66.7-28.834,104.657-28.624,51.594.286,103.384,7.391,154.508,13.394,54.126,6.355,108.278,13.5,162.714,16.914,17.416,1.094,40.043,5.286,56.139-3.2,13.587-7.167,20-21.993,25.962-34.967,7.306-15.9,14.823-31.87,27.706-44.4,20.04-19.488,48.589-26.522,76.214-28.255,25.657-1.61,51.465.909,76.8,4.7,22.867,3.421,46.223,7.5,68.656,13.141,20.167,5.072,38.961,13.388,56.881,23.55,15.83,8.977,31.079,18.986,47.9,26.216,22.981,9.875,47.477,13.223,72.5,12.894" transform="translate(-53.125 -790.78)" fill="none" stroke="#bfbfbf" stroke-miterlimit="10" stroke-width="1"/>
        </g>
        <g id="Group_1276" data-name="Group 1276" transform="translate(0 64.776)">
          <path id="Path_1008" data-name="Path 1008" d="M53.125,848.051c53.277-.285,105.64-10.91,158.664-14.478,24.367-1.639,49.042-1.8,73.208,2.038a191.893,191.893,0,0,1,30.164,7.234c15.364,5.083,29.214,13.377,44.039,19.7,26.193,11.176,54.249,19.488,83.075,20.116,19.479.425,38.581-2.981,57.117-8.568,35.461-10.687,68.535-26.223,106.531-26.029,50.6.259,101.356,6.681,151.56,12.184,52.9,5.8,105.821,12.306,158.988,15.385,17.553,1.017,39.445,4.8,56.009-2.607,13.578-6.07,21.293-19.067,28.342-31.12,8.385-14.339,16.845-28.679,29.805-39.713,20.393-17.361,47.734-23.563,74.284-24.981,24.241-1.294,48.58,1.081,72.513,4.656,15.643,2.337,31.052,6.413,46.7,8.525q9.815,1.326,19.513,3.346c20.979,4.41,40.943,11.719,60.309,20.567,17.333,7.919,34.271,16.708,52.362,22.97,24.388,8.442,49.782,11.336,75.606,10.769" transform="translate(-53.125 -776.859)" fill="none" stroke="#bfbfbf" stroke-miterlimit="10" stroke-width="1"/>
        </g>
        <g id="Group_1277" data-name="Group 1277" transform="translate(0 60.806)">
          <path id="Path_1009" data-name="Path 1009" d="M53.125,823.826c53.057-.256,105.363-9.827,158.213-13.035,24.4-1.481,49.038-1.615,73.272,1.834A214.2,214.2,0,0,1,315,819.138c15.04,4.434,28.645,11.987,43.157,17.739,25.928,10.276,53.46,17.556,81.626,18.111,19.593.386,38.892-2.709,57.734-7.713,36.1-9.586,70.295-23.578,108.4-23.436,49.443.184,98.987,5.832,148.1,10.765,51.5,5.173,103.026,10.978,154.753,13.648,17.733.915,38.9,4.207,55.937-2.026,13.671-5,22.786-16.159,31.136-27.188,9.612-12.694,19.151-25.391,32.309-34.946,20.873-15.158,47.137-20.54,72.791-21.618,22.9-.963,45.852,1.285,68.46,4.661,14.641,2.186,29.208,6.247,43.9,7.849q10,1.09,19.917,2.784c21.8,3.746,42.877,10.066,63.556,17.618,18.777,6.858,37.3,14.43,56.634,19.759,25.631,7.064,51.9,9.485,78.5,8.683" transform="translate(-53.125 -762.248)" fill="none" stroke="#bfbfbf" stroke-miterlimit="10" stroke-width="1"/>
        </g>
        <g id="Group_1278" data-name="Group 1278" transform="translate(0 56.537)">
          <path id="Path_1010" data-name="Path 1010" d="M53.125,798.8c52.843-.226,105.084-8.742,157.763-11.591,24.422-1.321,49.04-1.429,73.335,1.631a242.456,242.456,0,0,1,30.615,5.791c14.7,3.816,28.067,10.6,42.275,15.774,25.654,9.338,52.666,15.623,80.176,16.105,19.719.346,39.216-2.434,58.351-6.859,36.734-8.494,71.982-20.907,110.262-20.844,98.438.163,196.233,16.638,294.48,20.978,17.938.792,38.448,3.564,55.933-1.476,13.893-4,24.457-13.382,34.28-23.246,10.93-10.976,21.665-22.035,35.153-30.169,21.406-12.91,46.734-17.513,71.666-18.244,21.627-.634,43.256,1.491,64.6,4.671,13.663,2.035,27.436,6.013,41.182,7.179q10.162.862,20.267,2.242c22.615,3.1,44.729,8.443,66.591,14.747,20.152,5.811,40.143,12.194,60.689,16.628a325.666,325.666,0,0,0,81.164,6.684" transform="translate(-53.125 -746.534)" fill="none" stroke="#bfbfbf" stroke-miterlimit="10" stroke-width="1"/>
        </g>
        <g id="Group_1279" data-name="Group 1279" transform="translate(0 51.858)">
          <path id="Path_1011" data-name="Path 1011" d="M53.125,772.668c52.635-.2,104.8-7.656,157.312-10.148,24.449-1.16,49.047-1.244,73.4,1.428a279.309,279.309,0,0,1,30.84,5.07c14.352,3.228,27.485,9.227,41.392,13.81,45.267,14.915,90.989,17.357,137.7,8.095,37.372-7.412,73.6-18.222,112.125-18.253,95.475-.078,190.424,13.975,285.76,17.4,18.155.652,38.134,2.919,56.013-.972,14.286-3.109,26.31-10.814,37.705-19.366,12.281-9.217,24.3-18.652,38.272-25.452,21.917-10.668,46.473-14.545,70.837-14.935,20.4-.327,40.767,1.672,60.907,4.646,12.719,1.878,25.707,5.693,38.527,6.5q10.3.647,20.557,1.732c23.4,2.479,46.472,6.874,69.388,12,21.443,4.795,42.79,10.039,64.5,13.623a404.586,404.586,0,0,0,83.556,4.825" transform="translate(-53.125 -729.311)" fill="none" stroke="#bfbfbf" stroke-miterlimit="10" stroke-width="1"/>
        </g>
        <g id="Group_1280" data-name="Group 1280" transform="translate(0 46.664)">
          <path id="Path_1012" data-name="Path 1012" d="M53.125,745.161c52.434-.169,104.521-6.569,156.862-8.7,24.475-1,49.058-1.061,73.462,1.225,10.419.976,20.8,2.387,31.065,4.349,13.987,2.672,26.9,7.864,40.51,11.845,45.095,13.192,90.634,14.65,136.863,6.943,38.007-6.336,75.162-15.531,113.987-15.663,92.51-.313,184.615,11.3,277.032,13.82,18.376.5,37.969,2.314,56.19-.529,14.882-2.322,28.355-8.487,41.347-15.62,13.615-7.475,26.976-15.3,41.6-20.866,22.346-8.5,46.311-11.7,70.236-11.768a387.574,387.574,0,0,1,57.333,4.546c11.8,1.731,24.007,5.275,35.917,5.791q10.4.451,20.779,1.264c24.14,1.891,48.075,5.388,71.918,9.42,51.213,8.659,101.456,16.405,153.684,13.946" transform="translate(-53.125 -710.193)" fill="none" stroke="#bfbfbf" stroke-miterlimit="10" stroke-width="1"/>
        </g>
        <g id="Group_1281" data-name="Group 1281" transform="translate(0 40.859)">
          <path id="Path_1013" data-name="Path 1013" d="M53.125,716.016c52.24-.14,104.236-5.482,156.411-7.261,24.5-.835,49.074-.879,73.525,1.022,10.474.815,20.919,1.991,31.29,3.628,13.61,2.147,26.321,6.515,39.627,9.881,44.907,11.357,90.276,12.03,136.031,5.792,38.637-5.268,76.665-12.848,115.851-13.071,89.661-.51,179.03,8.708,268.634,10.375,18.607.346,37.952,1.773,56.475-.161,15.687-1.638,30.579-6.4,45.139-12.081,14.913-5.816,29.624-12.07,45.078-16.481,22.654-6.466,46.205-9.027,69.793-8.818a411.872,411.872,0,0,1,53.844,4.328c10.925,1.542,22.3,4.746,33.331,5.039q10.469.279,20.927.851c24.814,1.353,49.509,4.014,74.153,7.054,52.886,6.524,105.235,12.506,158.678,9.9" transform="translate(-53.125 -688.828)" fill="none" stroke="#bfbfbf" stroke-miterlimit="10" stroke-width="1"/>
        </g>
        <g id="Group_1282" data-name="Group 1282" transform="translate(0 34.357)">
          <path id="Path_1014" data-name="Path 1014" d="M53.125,685c52.054-.112,103.949-4.393,155.961-5.817,24.524-.672,49.1-.7,73.589.819,10.533.653,21.048,1.6,31.515,2.906,13.222,1.655,25.746,5.183,38.745,7.917,44.718,9.4,89.9,9.494,135.2,4.64,39.263-4.206,78.119-10.186,117.719-10.478,87.039-.64,173.892,6.265,260.9,7.2,18.847.2,38.079,1.3,56.884.115,16.671-1.053,32.946-4.557,49.015-8.821,16.171-4.291,32.21-9.03,48.635-12.369a319.188,319.188,0,0,1,69.438-6.163,449.562,449.562,0,0,1,50.4,3.952c10.083,1.326,20.579,4.094,30.752,4.227q10.5.137,20.992.5c25.4.88,50.748,2.784,76.066,4.948,54.322,4.643,108.388,9.009,162.975,6.419" transform="translate(-53.125 -664.894)" fill="none" stroke="#bfbfbf" stroke-miterlimit="10" stroke-width="1"/>
        </g>
        <g id="Group_1283" data-name="Group 1283" transform="translate(0 27.101)">
          <path id="Path_1015" data-name="Path 1015" d="M53.125,651.964c51.875-.084,103.659-3.3,155.51-4.374,24.548-.506,49.122-.522,73.652.616,10.6.491,21.181,1.2,31.74,2.185,12.828,1.2,25.178,3.868,37.863,5.952,44.538,7.318,89.472,7.037,134.367,3.489,39.883-3.152,79.526-7.562,119.591-7.883,84.761-.679,169.422,4.079,254.169,4.441,19.1.081,38.349.9,57.429.285,17.783-.575,35.4-2.962,52.909-5.914,40.389-6.811,80.1-13.46,121.311-12.478,15.7.374,31.378,1.566,46.97,3.377,9.262,1.076,18.834,3.31,28.163,3.338q10.485.032,20.969.232c25.9.488,51.768,1.735,77.626,3.145,55.5,3.028,110.913,5.967,166.517,3.589" transform="translate(-53.125 -638.186)" fill="none" stroke="#bfbfbf" stroke-miterlimit="10" stroke-width="1"/>
        </g>
        <g id="Group_1284" data-name="Group 1284" transform="translate(0 18.98)">
          <path id="Path_1016" data-name="Path 1016" d="M53.125,616.61c51.7-.056,103.366-2.214,155.059-2.93,24.571-.34,49.153-.347,73.716.412,23.218.718,45.909,2.812,68.946,5.452,85.014,9.741,169.888-2.331,255.005-2.948,82.941-.6,165.842,2.244,248.778,2.229,38.482-.007,76.517.536,114.879-3.1,41.459-3.927,82.71-8.293,124.451-7.285q21.794.527,43.511,2.563c8.444.781,17.061,2.379,25.544,2.354q10.424-.031,20.849.05c26.276.2,52.544.9,78.808,1.691,56.414,1.7,112.807,3.43,169.242,1.509" transform="translate(-53.125 -608.295)" fill="none" stroke="#bfbfbf" stroke-miterlimit="10" stroke-width="1"/>
        </g>
        <g id="Group_1285" data-name="Group 1285" transform="translate(0 9.958)">
          <path id="Path_1017" data-name="Path 1017" d="M53.125,578.84c98.883-.054,197.91-4.5,296.677,1.489,85.3,5.171,170.716-1.1,256.061-1.5,81.691-.385,163.373.856,245.063.705,39.859-.074,79.624.385,119.467-1.2,42.442-1.689,84.863-3.834,127.359-3.1,27.88.482,55.609,2.666,83.489,2.695,26.528.027,53.056.31,79.582.632,57.03.692,114.061,1.44,171.09.278" transform="translate(-53.125 -575.087)" fill="none" stroke="#bfbfbf" stroke-miterlimit="10" stroke-width="1"/>
        </g>
        <g id="Group_1286" data-name="Group 1286">
          <path id="Path_1018" data-name="Path 1018" d="M53.125,538.562q276.38,0,552.759,0,248.655-.042,497.312-.088,164.358.112,328.717.088" transform="translate(-53.125 -538.436)" fill="none" stroke="#bfbfbf" stroke-miterlimit="10" stroke-width="1"/>
        </g>
      </g>
    </g>
  </g>
</svg>
