<svg xmlns="http://www.w3.org/2000/svg" width="36" height="36" viewBox="0 0 36 36">
  <g id="customer-excellence-icon" transform="translate(-633 -1711)">
    <rect id="Rectangle_1761" data-name="Rectangle 1761" width="36" height="36" rx="13" transform="translate(633 1711)" fill="#eaeaea"/>
    <g id="messages" transform="translate(639 1717)">
      <path id="Path_919" data-name="Path 919" d="M17,9a7.262,7.262,0,0,1-7.5,7l-.93,1.12-.55.66a1,1,0,0,1-1.68-.23L5,14.6A6.854,6.854,0,0,1,2,9,7.262,7.262,0,0,1,9.5,2a7.514,7.514,0,0,1,6.8,4.07A6.458,6.458,0,0,1,17,9Z" fill="none" stroke="#292d32" stroke-linecap="round" stroke-linejoin="round" stroke-width="1.5"/>
      <path id="Path_920" data-name="Path 920" d="M22,12.86a6.854,6.854,0,0,1-3,5.6l-1.34,2.95a1,1,0,0,1-1.68.23L14.5,19.86a7.6,7.6,0,0,1-5.93-2.74L9.5,16A7.262,7.262,0,0,0,17,9a6.458,6.458,0,0,0-.7-2.93A7.115,7.115,0,0,1,22,12.86Z" fill="none" stroke="#292d32" stroke-linecap="round" stroke-linejoin="round" stroke-width="1.5"/>
      <path id="Path_921" data-name="Path 921" d="M7,9h5" fill="none" stroke="#292d32" stroke-linecap="round" stroke-linejoin="round" stroke-width="1.5"/>
    </g>
  </g>
</svg>
