<svg xmlns="http://www.w3.org/2000/svg" width="36" height="36" viewBox="0 0 36 36">
  <g id="partnerships-icon" transform="translate(-1343 -1460)">
    <rect id="Rectangle_1758" data-name="Rectangle 1758" width="36" height="36" rx="13" transform="translate(1343 1460)" fill="#eaeaea"/>
    <g id="note-2" transform="translate(1349.021 1465.998)">
      <path id="Path_931" data-name="Path 931" d="M21.66,10.44l-.98,4.18c-.84,3.61-2.5,5.07-5.62,4.77a10.513,10.513,0,0,1-1.62-.27l-1.68-.4c-4.17-.99-5.46-3.05-4.48-7.23L8.26,7.3A10.474,10.474,0,0,1,9,5.1c1.17-2.42,3.16-3.07,6.5-2.28l1.67.39C21.36,4.19,22.64,6.26,21.66,10.44Z" fill="none" stroke="#292d32" stroke-linecap="round" stroke-linejoin="round" stroke-width="1.5"/>
      <path id="Path_932" data-name="Path 932" d="M15.06,19.39a9.372,9.372,0,0,1-2.35,1.08l-1.58.52c-3.97,1.28-6.06.21-7.35-3.76L2.5,13.28C1.22,9.31,2.28,7.21,6.25,5.93l1.58-.52A10.224,10.224,0,0,1,9,5.1a10.474,10.474,0,0,0-.74,2.2l-.98,4.19c-.98,4.18.31,6.24,4.48,7.23l1.68.4A10.513,10.513,0,0,0,15.06,19.39Z" fill="none" stroke="#292d32" stroke-linecap="round" stroke-linejoin="round" stroke-width="1.5"/>
      <path id="Path_933" data-name="Path 933" d="M12.64,8.53l4.85,1.23" fill="none" stroke="#292d32" stroke-linecap="round" stroke-linejoin="round" stroke-width="1.5"/>
      <path id="Path_934" data-name="Path 934" d="M11.66,12.4l2.9.74" fill="none" stroke="#292d32" stroke-linecap="round" stroke-linejoin="round" stroke-width="1.5"/>
    </g>
  </g>
</svg>
