<svg xmlns="http://www.w3.org/2000/svg" width="36" height="36" viewBox="0 0 36 36">
  <g id="teamwork-icon" transform="translate(-633 -1460)">
    <rect id="Rectangle_1750" data-name="Rectangle 1750" width="36" height="36" rx="13" transform="translate(633 1460)" fill="#eaeaea"/>
    <g id="people" transform="translate(639.015 1465.999)">
      <path id="Path_1029" data-name="Path 1029" d="M18,7.16a.605.605,0,0,0-.19,0,2.585,2.585,0,1,1,.19,0Z" fill="none" stroke="#292d32" stroke-linecap="round" stroke-linejoin="round" stroke-width="1.5"/>
      <path id="Path_1030" data-name="Path 1030" d="M16.97,14.44a5.635,5.635,0,0,0,3.94-.72,1.911,1.911,0,0,0,0-3.42,5.67,5.67,0,0,0-3.97-.71" fill="none" stroke="#292d32" stroke-linecap="round" stroke-linejoin="round" stroke-width="1.5"/>
      <path id="Path_1031" data-name="Path 1031" d="M5.97,7.16a.605.605,0,0,1,.19,0,2.585,2.585,0,1,0-.19,0Z" fill="none" stroke="#292d32" stroke-linecap="round" stroke-linejoin="round" stroke-width="1.5"/>
      <path id="Path_1032" data-name="Path 1032" d="M7,14.44a5.635,5.635,0,0,1-3.94-.72,1.911,1.911,0,0,1,0-3.42,5.67,5.67,0,0,1,3.97-.71" fill="none" stroke="#292d32" stroke-linecap="round" stroke-linejoin="round" stroke-width="1.5"/>
      <path id="Path_1033" data-name="Path 1033" d="M12,14.63a.605.605,0,0,0-.19,0,2.585,2.585,0,1,1,.19,0Z" fill="none" stroke="#292d32" stroke-linecap="round" stroke-linejoin="round" stroke-width="1.5"/>
      <path id="Path_1034" data-name="Path 1034" d="M9.09,17.78a1.911,1.911,0,0,0,0,3.42,5.677,5.677,0,0,0,5.82,0,1.911,1.911,0,0,0,0-3.42A5.723,5.723,0,0,0,9.09,17.78Z" fill="none" stroke="#292d32" stroke-linecap="round" stroke-linejoin="round" stroke-width="1.5"/>
    </g>
  </g>
</svg>
