<svg xmlns="http://www.w3.org/2000/svg" xmlns:xlink="http://www.w3.org/1999/xlink" width="1364" height="329" viewBox="0 0 1364 329">
  <defs>
    <clipPath id="clip-path">
      <rect id="Rectangle_1828" data-name="Rectangle 1828" width="1364" height="329" transform="translate(-11737 -10481)" fill="#fff" stroke="#707070" stroke-width="1"/>
    </clipPath>
  </defs>
  <g id="footer-banner-bg" transform="translate(11737 10481)" opacity="0.2" clip-path="url(#clip-path)">
    <g id="Group_1186" data-name="Group 1186" transform="translate(-11737 -10776.07)">
      <g id="Group_1185" data-name="Group 1185" transform="translate(0 0)">
        <g id="Group_1114" data-name="Group 1114" transform="translate(0 903.221)">
          <path id="Path_817" data-name="Path 817" d="M53.125,3857.328q77.01.068,154.019-.008,36.882-.017,73.765-.017c22.017,0,44.613,1.454,66.519-1.031,34.891-3.959,63.388-21.5,92.692-39.129,29.6-17.8,60.339-29.924,95.511-29.726,51.069.288,102.322,16.043,151.108,29.364,52.519,14.341,105.255,30.854,159.412,38.041,49.058,6.511,97.851-3.006,145.726-13.25,58.705-12.56,116.8-28.455,176.132-38.017,26.954-4.344,54.67-7.654,81.949-4.468,20.475,2.391,39.906,8.768,58.382,17.671,17.06,8.221,33.263,18.1,50.647,25.674,22.9,9.981,46.909,14.67,71.915,14.9" transform="translate(-53.125 -3787.414)" fill="none" stroke="#bfbfbf" stroke-miterlimit="10" stroke-width="1"/>
        </g>
        <g id="Group_1115" data-name="Group 1115" transform="translate(0 890.111)">
          <path id="Path_818" data-name="Path 818" d="M53.125,3809.38c50.718,1.174,101.414-.135,152.119-1.292,24.067-.549,48.138-1.013,72.212-1.066,21.931-.049,44.35,1.95,66.123-1.051,69.1-9.526,123.612-66.3,195.092-65.709,23.6.2,47.632,4.991,70.658,9.662,26.789,5.434,53.314,12.073,79.783,18.844,52.074,13.321,104.23,28.309,157.6,35.714a258.773,258.773,0,0,0,65.144.97c27.245-3.01,54.236-8.117,81.065-13.6,58.8-12.015,117.088-26.934,176.414-36.335,27.005-4.28,54.825-8,82.168-4.9,20.4,2.313,39.7,8.683,57.97,17.809,16.686,8.335,32.437,18.405,49.476,26.066,22.837,10.267,46.9,14.794,71.948,14.885" transform="translate(-53.125 -3740.257)" fill="none" stroke="#bfbfbf" stroke-miterlimit="10" stroke-width="1"/>
        </g>
        <g id="Group_1116" data-name="Group 1116" transform="translate(0 878.243)">
          <path id="Path_819" data-name="Path 819" d="M53.125,3764.656c49.318,1.672,98.425-1.378,147.625-4.327,23.12-1.385,46.255-2.575,69.417-2.953,21.842-.355,43.952,1.719,65.625-1.3,37.272-5.187,72.26-19.44,107.206-32.558,17.171-6.446,34.465-12.66,52.2-17.419,16.384-4.395,34.489-8.869,51.585-8.521,23.47.479,47.312,4.977,70.318,9.224,26.141,4.826,52.087,10.624,77.993,16.54,51.123,11.675,102.262,24.593,154.334,31.506a267.328,267.328,0,0,0,65.238,1.027c27.252-2.932,54.293-7.675,81.208-12.747,58.958-11.111,117.5-24.735,176.874-33.581,27.022-4.026,54.948-7.948,82.273-4.83,20.138,2.3,39.114,8.725,56.934,18.155,16.1,8.521,31.169,18.854,47.665,26.671,22.494,10.659,46.4,15.086,71.278,15.109" transform="translate(-53.125 -3697.564)" fill="none" stroke="#bfbfbf" stroke-miterlimit="10" stroke-width="1"/>
        </g>
        <g id="Group_1117" data-name="Group 1117" transform="translate(0 867.429)">
          <path id="Path_820" data-name="Path 820" d="M53.125,3722.671c47.383,1.7,94-3.473,140.974-8.818,21.8-2.482,43.652-4.629,65.589-5.538,21.7-.9,43.464.877,65.04-1.73,40.947-4.948,80.841-16.221,120.662-26.467,19.779-5.089,39.608-10.05,59.647-14.048,17.388-3.47,36.264-7.754,54.093-7.382,23.115.482,46.578,4.431,69.364,8,25.291,3.957,50.456,8.655,75.594,13.453,49.748,9.5,99.489,19.866,149.849,25.732,10.84,1.263,21.808,2.576,32.727,2.93,10.7.347,21.7-1,32.327-2.05,27.283-2.691,54.4-6.931,81.423-11.456,59.162-9.908,118-21.969,177.484-29.934,27.006-3.616,55.045-7.565,82.284-4.348a145.515,145.515,0,0,1,55.377,18.676c15.349,8.767,29.53,19.42,45.32,27.454,21.908,11.145,45.487,15.519,70.021,15.529" transform="translate(-53.125 -3658.665)" fill="none" stroke="#bfbfbf" stroke-miterlimit="10" stroke-width="1"/>
        </g>
        <g id="Group_1118" data-name="Group 1118" transform="translate(0 852.393)">
          <path id="Path_821" data-name="Path 821" d="M53.125,3669.722c45.177,1.406,88.455-6.154,132.6-14.475,20.173-3.8,40.445-7.088,60.934-8.682,21.476-1.671,42.949-.39,64.387-2.313,46-4.127,91.615-11.9,137.213-18.974,22.837-3.545,45.688-7.032,68.612-9.99,19.006-2.453,38.775-5.773,57.983-5.625,22.571.173,45.545,3.48,67.921,6.139,24.285,2.886,48.5,6.277,72.711,9.741,48.03,6.875,96.047,14.3,144.391,18.708a362.908,362.908,0,0,0,64.646.571c27.335-2.32,54.551-5.944,81.7-9.812,59.405-8.465,118.578-18.75,178.214-25.573,26.962-3.084,55.116-6.921,82.22-3.534a130.3,130.3,0,0,1,53.4,19.334c14.46,9.064,27.587,20.077,42.548,28.38,21.112,11.715,44.236,16.067,68.3,16.106" transform="translate(-53.125 -3604.581)" fill="none" stroke="#bfbfbf" stroke-miterlimit="10" stroke-width="1"/>
        </g>
        <g id="Group_1119" data-name="Group 1119" transform="translate(0 835.799)">
          <path id="Path_822" data-name="Path 822" d="M53.125,3612.725a298.653,298.653,0,0,0,70.834-6.641c17.616-3.885,34.8-9.34,52.1-14.362,18.272-5.3,36.743-9.86,55.661-12.243,21.156-2.666,42.432-1.884,63.683-3.01,52.07-2.759,104.073-6.722,156.08-10.433,26.233-1.871,52.469-3.728,78.715-5.416,20.846-1.342,42.006-3.538,62.906-3.408,45.128.28,90.65,5.559,135.576,9.372,46.039,3.909,92.072,8.068,138.206,10.747a506.746,506.746,0,0,0,64.072.141c27.407-1.851,54.735-4.777,82.017-7.906,59.678-6.844,119.2-15.189,179.033-20.678,26.9-2.468,55.164-6.087,82.1-2.473a115.327,115.327,0,0,1,51.122,20.1c13.47,9.4,25.413,20.8,39.458,29.413,20.139,12.351,42.728,16.7,66.219,16.8" transform="translate(-53.125 -3544.89)" fill="none" stroke="#bfbfbf" stroke-miterlimit="10" stroke-width="1"/>
        </g>
        <g id="Group_1120" data-name="Group 1120" transform="translate(0 819.127)">
          <path id="Path_823" data-name="Path 823" d="M53.125,3555.526c22.665.156,45.013-2.529,66.605-9.5,15.729-5.076,30.652-12.112,45.8-18.613,16.137-6.924,32.644-12.843,49.977-16.082,20.783-3.884,41.887-3.452,62.943-3.78,58.822-.916,117.658-.954,176.485-1.195,52.683-.216,105.414-1.565,158.09-1.385,87.164.3,174.42,2.818,261.572,4.406,108.926,1.985,217.159-14.35,325.664-21.623,44.62-2.991,93.185-9.707,130.572,19.682,12.417,9.76,23.078,21.554,36.157,30.515,19.023,13.037,41.045,17.4,63.91,17.571" transform="translate(-53.125 -3484.919)" fill="none" stroke="#bfbfbf" stroke-miterlimit="10" stroke-width="1"/>
        </g>
        <g id="Group_1121" data-name="Group 1121" transform="translate(0 801.862)">
          <path id="Path_824" data-name="Path 824" d="M53.125,3496.786c21.483-.21,42.547-3.554,62.155-12.5,13.884-6.336,26.4-14.983,39.3-23,13.808-8.58,28.246-15.916,44.09-20.057,20.382-5.326,41.279-4.981,62.188-4.587,124.354,2.343,248.522,14.887,372.921,14.763,83.115-.083,165.845-9.7,248.885-11.924,48.514-1.3,96.891-1.918,145.377-4.577,60.273-3.306,120.5-7.5,180.819-10,43.254-1.793,93.018-9.271,127.8,21.855,11.333,10.141,20.657,22.318,32.75,31.654,17.8,13.748,39.268,18.124,61.486,18.381" transform="translate(-53.125 -3422.814)" fill="none" stroke="#bfbfbf" stroke-miterlimit="10" stroke-width="1"/>
        </g>
        <g id="Group_1122" data-name="Group 1122" transform="translate(0 785.498)">
          <path id="Path_825" data-name="Path 825" d="M53.125,3440.389c20.406-.556,40.317-4.528,57.71-15.5,12.151-7.668,22.186-17.878,32.812-27.385,11.345-10.149,23.662-18.941,38.208-24.029,19.925-6.969,40.63-6.4,61.433-5.393,73.074,3.542,145.967,11.3,218.8,17.959,37.325,3.415,74.656,6.8,112.03,9.666,26.654,2.041,53.645,4.648,80.405,4.464,79.441-.544,157.21-22.32,236.209-28.238,20.652-1.548,41.218-1.331,61.909-1.472,27.7-.19,55.4-.8,83.091-1.489,60.575-1.509,121.138-3.606,181.726-4.583,14.4-.232,28.793-.4,43.191-.4,12.788,0,25.745-.4,38.4,1.764a77.669,77.669,0,0,1,43.449,22.66c10.252,10.526,18.218,23.072,29.346,32.792,16.546,14.452,37.459,18.852,59.065,19.19" transform="translate(-53.125 -3363.953)" fill="none" stroke="#bfbfbf" stroke-miterlimit="10" stroke-width="1"/>
        </g>
        <g id="Group_1123" data-name="Group 1123" transform="translate(0 763.025)">
          <path id="Path_826" data-name="Path 826" d="M53.125,3368.122c19.529-.848,38.463-5.43,53.5-18.349,10.553-9.068,18.127-20.727,26.532-31.626,8.863-11.494,19.05-21.771,32.54-27.858,19.339-8.725,40.018-7.663,60.7-6.161,79.984,5.807,159.61,17.253,239.145,27.171,40.922,5.1,81.853,10.18,122.861,14.569,28.288,3.027,57.475,7.358,85.99,6.977,38.071-.507,76.327-10.39,112.956-19.74,36.707-9.371,73.371-19.5,111.079-24.167,20.492-2.535,40.625-2.234,61.229-1.98,27.811.341,55.625.483,83.438.586,60.867.227,121.736.174,182.6.653q21.67.171,43.338.483c12.675.2,25.577-.2,38.091,2.1a68.441,68.441,0,0,1,40.967,23.49c9.209,10.908,15.854,23.774,26.052,33.893,15.264,15.145,35.737,19.552,56.764,19.958" transform="translate(-53.125 -3283.113)" fill="none" stroke="#bfbfbf" stroke-miterlimit="10" stroke-width="1"/>
        </g>
        <g id="Group_1124" data-name="Group 1124" transform="translate(0 738.009)">
          <path id="Path_827" data-name="Path 827" d="M53.125,3289.253c18.926-1.055,37.061-6.231,49.746-20.883,9.085-10.495,14.337-23.44,20.669-35.585,6.53-12.524,14.62-24.285,27.291-31.4,18.58-10.436,39.536-8.713,59.993-6.853,86.381,7.858,172.212,22.757,257.919,35.671,44.26,6.668,88.532,13.314,132.918,19.122,16.316,2.135,32.65,4.154,49.017,5.882,13.738,1.451,28.012,3.609,41.855,3.294,36.927-.84,73.652-13.784,107.929-26.211,34.378-12.464,68.66-25.941,104.923-32.09,20.368-3.454,40.087-3,60.661-2.406q41.879,1.211,83.756,2.483,91.709,2.762,183.417,5.527,21.734.642,43.469,1.263c12.582.359,25.441-.051,37.842,2.373,15.993,3.125,29.158,11.2,38.7,24.249,8.236,11.27,13.637,24.41,22.975,34.92,14.035,15.8,34.172,20.2,54.7,20.648" transform="translate(-53.125 -3193.127)" fill="none" stroke="#bfbfbf" stroke-miterlimit="10" stroke-width="1"/>
        </g>
        <g id="Group_1125" data-name="Group 1125" transform="translate(0 714.496)">
          <path id="Path_828" data-name="Path 828" d="M53.125,3214.288c18.626-1.148,36.146-6.847,46.68-22.953,7.756-11.859,10.932-25.9,15.432-39.123,4.505-13.237,10.611-26.407,22.671-34.522,17.687-11.9,39.237-9.508,59.342-7.429,91.995,9.511,183.257,27.557,274.338,43.1,47.212,8.059,94.439,16.1,141.818,23.15,17.172,2.556,34.367,4.981,51.606,7.055,14.084,1.694,28.873,4.223,43.1,3.852,36.232-.945,71.532-16.562,103.643-31.727,32.22-15.216,64.278-31.725,99.507-39.062,20.246-4.216,39.714-3.57,60.263-2.709,28.019,1.175,56.026,2.618,84.028,4.112,61.381,3.274,122.743,6.922,184.142,9.857q21.783,1.042,43.574,1.893c12.518.472,25.352.019,37.676,2.542,15.686,3.211,28.229,11.5,36.741,24.9,7.367,11.6,11.646,24.964,20.222,35.84,12.924,16.393,32.862,20.748,53,21.218" transform="translate(-53.125 -3108.551)" fill="none" stroke="#bfbfbf" stroke-miterlimit="10" stroke-width="1"/>
        </g>
        <g id="Group_1126" data-name="Group 1126" transform="translate(0 693.012)">
          <path id="Path_829" data-name="Path 829" d="M53.125,3144.591c18.593-1.088,35.765-7.127,44.529-24.406,6.619-13.051,8.049-27.994,11.025-42.1,2.89-13.695,7.238-28.108,18.888-37.077,16.773-12.914,39.125-10.007,58.761-7.856,44.781,4.906,89.256,12.871,133.577,20.754,51.409,9.143,102.715,18.834,154.05,28.365,49.651,9.219,99.318,18.426,149.179,26.483,17.8,2.875,35.626,5.606,53.509,7.916,14.245,1.84,29.218,4.462,43.628,4.1,73.475-1.865,126.322-64.517,195.419-80.739,20.111-4.721,39.608-3.875,60.091-2.847,28.1,1.411,56.178,3.349,84.241,5.384,61.582,4.465,123.116,9.663,184.746,13.465,14.541.9,29.089,1.71,43.646,2.321,12.5.524,25.324-.008,37.62,2.579,15.491,3.259,27.554,11.715,35.207,25.414,6.636,11.88,9.959,25.423,17.9,36.616,12,16.92,31.909,21.18,51.765,21.629" transform="translate(-53.125 -3031.269)" fill="none" stroke="#bfbfbf" stroke-miterlimit="10" stroke-width="1"/>
        </g>
        <g id="Group_1127" data-name="Group 1127" transform="translate(0 674.07)">
          <path id="Path_830" data-name="Path 830" d="M53.125,3081.5c18.741-.832,35.994-6.867,43.518-25.089,5.768-13.969,5.84-29.6,7.657-44.373,1.718-13.967,4.675-29.371,16.148-38.928,15.98-13.31,39.185-10.166,58.267-8.091,45.89,4.989,91.431,13.692,136.757,22.193,53.486,10.032,106.849,20.693,160.247,31.171,51.446,10.095,102.912,20.212,154.617,28.945,18.141,3.064,36.313,5.982,54.557,8.391,14.2,1.874,28.9,4.193,43.269,3.948,74.427-1.27,121.144-70.67,190.147-87.524,19.973-4.878,39.837-3.851,60.2-2.779,28.165,1.481,56.285,3.774,84.379,6.211,61.733,5.355,123.379,11.831,185.2,16.173,14.546,1.022,29.1,1.915,43.676,2.5,12.529.5,25.37-.155,37.7,2.448,15.411,3.254,27.184,11.8,34.2,25.752,6.079,12.095,8.647,25.773,16.117,37.212,11.344,17.373,31.421,21.459,51.125,21.843" transform="translate(-53.125 -2963.134)" fill="none" stroke="#bfbfbf" stroke-miterlimit="10" stroke-width="1"/>
        </g>
        <g id="Group_1128" data-name="Group 1128" transform="translate(0 658.181)">
          <path id="Path_831" data-name="Path 831" d="M53.125,3026.333c18.962-.372,36.893-5.914,43.845-24.889,5.32-14.522,4.5-30.612,5.6-45.792,1.017-14.094,3.109-30.156,14.687-39.908,15.435-13,39.371-9.909,57.874-8.047,46.182,4.647,92.008,13.8,137.524,22.578,54.783,10.563,109.42,21.841,164.1,32.9,52.451,10.612,104.926,21.267,157.684,30.3,31.577,5.409,64.3,12.017,96.5,11.745,37.212-.315,68.581-18.178,97.68-39.4,27.943-20.376,55.579-43.035,90.181-51.1,19.867-4.629,40.4-3.451,60.617-2.479,28.2,1.356,56.333,3.833,84.428,6.505,61.82,5.881,123.515,13.306,185.465,17.792,14.535,1.052,29.089,1.928,43.656,2.374,12.621.386,25.492-.439,37.928,2.13,15.438,3.189,27.163,11.709,33.821,25.877,5.745,12.224,7.818,25.992,15.02,37.573,11.025,17.727,31.489,21.552,51.173,21.831" transform="translate(-53.125 -2905.981)" fill="none" stroke="#bfbfbf" stroke-miterlimit="10" stroke-width="1"/>
        </g>
        <g id="Group_1129" data-name="Group 1129" transform="translate(0 646.328)">
          <path id="Path_832" data-name="Path 832" d="M53.125,2981.649c19.14-.877,36.186-7.472,43.9-25.879,5.985-14.272,6.337-30.211,8.3-45.334,1.777-13.686,4.494-29.322,15.9-38.628,15.806-12.9,38.472-7.947,56.779-5.174,100.692,15.253,200.445,37.076,300.476,55.969,50.2,9.48,100.448,18.792,150.915,26.78,32.687,5.173,66.659,11.736,99.906,11.466,75.834-.615,120.9-73.583,191.017-90.326,20.071-4.792,40.989-3.653,61.444-2.691,27.488,1.293,54.911,3.81,82.284,6.554,61.622,6.177,123.087,14.165,184.861,18.78,15.167,1.134,30.358,2.051,45.566,2.413,12.009.286,24.056-.354,35.891,2.1,15.381,3.189,27.5,11.382,35.086,25.028,6.653,11.968,9.7,25.687,17.587,37.023,11.7,16.833,31.438,21.157,51.034,21.791" transform="translate(-53.125 -2863.343)" fill="none" stroke="#bfbfbf" stroke-miterlimit="10" stroke-width="1"/>
        </g>
        <g id="Group_1130" data-name="Group 1130" transform="translate(0 637.12)">
          <path id="Path_833" data-name="Path 833" d="M53.125,2943.835c19.3-1.162,36.06-8.178,45.206-25.757,7.406-14.235,9.192-30.582,12.713-45.994,2.851-12.48,6.793-26.3,17.56-34.458,17.249-13.073,40.341-5.51,59.357-1.73q143.634,28.551,287.916,53.86c49.552,8.6,99.186,16.852,149,23.87,32.792,4.62,66.907,10.778,100.149,10.267,76.434-1.173,126.337-72.777,197.558-89.949,20.348-4.906,41.544-3.9,62.3-2.879,28,1.382,55.928,4.187,83.786,7.247,61.07,6.707,121.962,15.383,183.227,20.265,15.022,1.2,30.074,2.147,45.144,2.478,11.908.262,23.717-.276,35.458,2.128,15.293,3.132,28.014,10.938,36.8,23.739,7.679,11.185,12.228,24.237,20.8,34.861,12.978,16.084,32.672,20.727,52.661,21.568" transform="translate(-53.125 -2830.223)" fill="none" stroke="#bfbfbf" stroke-miterlimit="10" stroke-width="1"/>
        </g>
        <g id="Group_1131" data-name="Group 1131" transform="translate(0 624.885)">
          <path id="Path_834" data-name="Path 834" d="M53.125,2898.16c19.51-1.241,36.54-8.28,47.511-24.8,8.774-13.215,12.607-28.869,17.824-43.616,4.39-12.41,10.014-25.9,21.987-32.951,18.732-11.027,40.754-1.7,59.875,2.906,91.717,22.111,185.4,37.321,278.62,51.725,45.931,7.1,91.952,13.7,138.1,19.281,32.466,3.925,65.741,8.838,98.523,8.867,39.025.035,74.979-20.08,107.476-39.292C856.3,2820.613,889.792,2798,928.2,2789.517c19.9-4.4,40.521-3.506,60.747-2.4,26.951,1.469,53.812,4.413,80.6,7.645,61.807,7.458,123.372,17.25,185.408,22.763,15.488,1.377,31.016,2.468,46.566,2.818,11.78.265,23.346-.145,34.975,2.136,15.774,3.094,29.316,10.532,39.743,22.654,8.863,10.3,15.294,22.482,25.031,32.079,14.727,14.515,34.534,19.038,54.755,19.926" transform="translate(-53.125 -2786.211)" fill="none" stroke="#bfbfbf" stroke-miterlimit="10" stroke-width="1"/>
        </g>
        <g id="Group_1132" data-name="Group 1132" transform="translate(0 613.161)">
          <path id="Path_835" data-name="Path 835" d="M53.125,2853.811c20.309-1.178,38.243-8.3,51.279-24.095,10.059-12.188,16.134-26.842,23.41-40.676,6.239-11.862,13.92-24.226,26.858-29.773,19.945-8.552,40.54,1.892,59.718,7.329,40.107,11.371,81.235,19.329,122.27,26.627,47.557,8.459,95.358,15.592,143.249,21.929,43.974,5.819,88.048,10.969,132.211,15.184,30.922,2.952,62.394,6.631,93.5,6.578,40.263-.068,78.262-20,112.719-38.485,36.25-19.45,72.66-41.979,113.408-50.915,20.924-4.588,42.406-3.773,63.659-2.4,27.356,1.769,54.6,5.16,81.745,8.854,60.917,8.289,121.56,18.979,182.765,25.092,15.269,1.524,30.587,2.743,45.931,3.176,12.187.344,24.216-.034,36.273,2.143a85.909,85.909,0,0,1,41.994,19.917c10.888,9.541,19.7,21.2,31.265,30.02,16.671,12.716,36.871,16.961,57.563,17.778" transform="translate(-53.125 -2744.039)" fill="none" stroke="#bfbfbf" stroke-miterlimit="10" stroke-width="1"/>
        </g>
        <g id="Group_1133" data-name="Group 1133" transform="translate(0 601.807)">
          <path id="Path_836" data-name="Path 836" d="M53.125,2810.423c21.271-.979,40.408-8,55.774-22.781,11.513-11.078,19.932-24.631,29.452-37.3,8.2-10.909,17.808-21.679,31.353-25.88,21.089-6.54,40.386,4.737,59.873,11.175,37.049,12.24,75.684,19.9,114.112,26.5,45.937,7.9,92.224,13.792,138.581,18.68q60.969,6.43,122.169,10.448c29.827,1.969,60.006,4.466,89.921,4.221,42.351-.345,82.919-20.275,120.052-38.378,39.432-19.226,79.121-41.527,122.566-50.556,20.99-4.362,42.284-3.746,63.564-2.187,27.515,2.015,54.882,5.837,82.139,9.986,61.27,9.327,122.2,21.318,183.83,28.211,14.978,1.676,30.014,3.025,45.082,3.544,12.147.419,24.172.1,36.231,1.907a113.872,113.872,0,0,1,47.191,18.3c12.239,8.25,23.17,18.271,35.923,25.8,18.837,11.115,39.95,15.138,61.681,15.8" transform="translate(-53.125 -2703.197)" fill="none" stroke="#bfbfbf" stroke-miterlimit="10" stroke-width="1"/>
        </g>
        <g id="Group_1134" data-name="Group 1134" transform="translate(0 590.661)">
          <path id="Path_837" data-name="Path 837" d="M53.125,2767.576c22.03-.668,42.186-7.2,59.816-20.353,13.85-10.33,25.065-23.427,37.541-35.229,10.06-9.517,21.437-18.342,35.419-21.1,22.236-4.393,40.426,7.661,60.292,15.253,35.666,13.631,73.67,21.24,111.314,27.25,41.1,6.562,82.583,10.772,124.092,13.867,66.419,4.951,133.776,8.535,200.425,7.535,44.767-.672,88.066-20.481,128.144-38.263,43.265-19.195,86.906-41.58,133.875-50.455,20.638-3.9,41.375-3.408,62.226-1.673,27.667,2.3,55.15,6.594,82.5,11.236,60.29,10.233,120.172,23.212,180.854,31.084,15.424,2,30.919,3.648,46.464,4.375,12.706.595,25.379.208,38.038,1.7a155.653,155.653,0,0,1,51.294,15.371c14.332,7.129,27.759,15.917,42.387,22.484,20.985,9.421,43.373,13.089,66.317,13.52" transform="translate(-53.125 -2663.104)" fill="none" stroke="#bfbfbf" stroke-miterlimit="10" stroke-width="1"/>
        </g>
        <g id="Group_1135" data-name="Group 1135" transform="translate(0 579.405)">
          <path id="Path_838" data-name="Path 838" d="M53.125,2724.442a128.028,128.028,0,0,0,63.8-17.8c15.708-9.181,29.493-21,44.331-31.416,12.887-9.043,27.05-16.956,43.152-18.046,23.075-1.562,40.245,11.416,60.387,20.147,32.432,14.059,67.662,21.487,102.543,26.693,38.063,5.68,76.544,8.415,114.991,9.839,62.287,2.307,124.832,1.37,187.141.032,47.838-1.027,94.471-21.117,138.017-38.81,46.143-18.749,92.737-40.473,142.16-49.325,48.29-8.65,99.306,2.351,146.765,11.3,60.455,11.4,120.438,25.745,181.389,34.446,14.506,2.071,29.084,3.793,43.721,4.649,12.755.746,25.532.327,38.273,1.386a218.68,218.68,0,0,1,56.582,12.6c16.842,6.112,33.083,13.745,50.13,19.323,22.7,7.429,46.15,10.522,70.026,10.669" transform="translate(-53.125 -2622.615)" fill="none" stroke="#bfbfbf" stroke-miterlimit="10" stroke-width="1"/>
        </g>
        <g id="Group_1136" data-name="Group 1136" transform="translate(0 568.519)">
          <path id="Path_839" data-name="Path 839" d="M53.125,2682.271c24.7.065,48-5.956,70.158-16.557,17.341-8.3,33.413-18.857,50.477-27.657,14.939-7.7,31.039-13.906,48.159-13.462a76.569,76.569,0,0,1,24.287,4.814c13.315,4.868,24.4,13.911,37.1,20.11,61.366,29.976,134.977,32.573,202.131,31.912,56.323-.554,112.388-6.353,168.67-7.439,50.908-.984,100.413-20.494,147.419-38.04,50.124-18.71,100.618-40.451,153.7-49.552,49.368-8.465,100.516,3.043,148.794,13.066,59.355,12.321,118.178,27.6,178.08,37.227,15.417,2.477,30.934,4.557,46.527,5.574,12.253.8,24.527.367,36.786,1.016a312.11,312.11,0,0,1,61.816,9.848c19.064,4.94,37.769,11.149,56.943,15.69a315.139,315.139,0,0,0,74.76,8.224" transform="translate(-53.125 -2583.458)" fill="none" stroke="#bfbfbf" stroke-miterlimit="10" stroke-width="1"/>
        </g>
        <g id="Group_1137" data-name="Group 1137" transform="translate(0 557.508)">
          <path id="Path_840" data-name="Path 840" d="M53.125,2639.774c25.574.412,50.068-5.091,73.812-14.21,20-7.68,39.044-17.56,59.06-25.184,16.806-6.4,34.632-11.035,52.78-9.148a84.673,84.673,0,0,1,25,6.683c12.927,5.625,23.306,15.128,35.523,22,55.694,31.347,124.415,32.349,186.664,28.4C538.1,2645,589.874,2634.952,642.1,2633.639c53.366-1.342,105.508-20.675,155.326-37.922,53.373-18.478,107.107-39.92,163.153-49.12,49.178-8.073,98.975,3.182,146.881,13.908,60.831,13.621,120.985,30.717,182.472,41.351,14.531,2.513,29.156,4.63,43.87,5.749,12.769.971,25.533.466,38.319.868a457.484,457.484,0,0,1,67.785,7.619c20.423,3.729,40.677,8.326,61.165,11.708a442.536,442.536,0,0,0,79.325,5.869" transform="translate(-53.125 -2543.85)" fill="none" stroke="#bfbfbf" stroke-miterlimit="10" stroke-width="1"/>
        </g>
        <g id="Group_1138" data-name="Group 1138" transform="translate(0 546.268)">
          <path id="Path_841" data-name="Path 841" d="M53.125,2596.681c50.659,1.291,94.623-20.554,142-34.378,18.852-5.5,38.706-9.179,58.349-6.059a91.691,91.691,0,0,1,28.034,9.367c12.148,6.344,21.725,16.106,33.235,23.439,49.969,31.834,112.078,32.3,169.133,25.33,26.9-3.288,53.512-8.348,80.161-13.15,21.583-3.889,43.438-8.027,65.423-8.715,55.675-1.742,109.763-20.2,162.241-37.177,56.6-18.314,113.47-39.567,172.457-49.146,50.31-8.171,100.047,3.175,148.881,14.921,59.92,14.414,119.074,32.371,179.676,43.915a454.4,454.4,0,0,0,45.175,6.607c13.3,1.169,26.546.612,39.871.785a673.342,673.342,0,0,1,71.229,5.088c50.4,6.03,100.064,13.455,151.022,12.268" transform="translate(-53.125 -2503.416)" fill="none" stroke="#bfbfbf" stroke-miterlimit="10" stroke-width="1"/>
        </g>
        <g id="Group_1139" data-name="Group 1139" transform="translate(0 534.295)">
          <path id="Path_842" data-name="Path 842" d="M53.125,2551.687c53.33,1.57,101.595-20.01,152.7-31.106,20.279-4.4,41.522-6.792,62.007-2.274a95.968,95.968,0,0,1,27.193,10.577c12.515,7.2,22.048,18.022,33.784,26.3,46.548,32.848,103.785,32.6,157.715,21.952,24.184-4.774,47.931-11.366,71.833-17.309,20.03-4.98,40.487-9.917,61.218-10.623,58.438-1.988,115.4-20.736,170.821-37.711,58.719-17.986,117.732-38.746,178.649-48.262a236.672,236.672,0,0,1,71.778-.3c26.839,3.887,53.3,10.208,79.527,16.95,59.1,15.194,117.4,33.941,177.29,46.028a428.613,428.613,0,0,0,44.6,6.926c13.277,1.249,26.461.694,39.769.684,24.75-.02,49.471,1.174,74.151,2.948,53.591,3.854,106.884,9.047,160.7,7.617" transform="translate(-53.125 -2460.349)" fill="none" stroke="#bfbfbf" stroke-miterlimit="10" stroke-width="1"/>
        </g>
        <g id="Group_1140" data-name="Group 1140" transform="translate(0 522.001)">
          <path id="Path_843" data-name="Path 843" d="M53.125,2505.857c54.8,1.448,105.871-19.244,159.1-28.426,22.323-3.851,45.731-5.555,67.82.556a96.172,96.172,0,0,1,27.163,12.292c12.385,8.138,21.779,19.746,33.541,28.714,21.956,16.74,47.977,26.911,75.732,28.512,23.7,1.367,47.287-2.956,70.037-9.2,41.6-11.417,82.658-32.324,126.453-33.616,59.454-1.753,118.25-21.076,174.816-37.626,61.614-18.029,123.592-39,187.348-48.361a232.268,232.268,0,0,1,68.188-.119c27.726,4.04,55.011,10.914,82.012,18.216,59.052,15.969,117.242,35.683,177.208,48.194a388.5,388.5,0,0,0,45.614,7.141c13.132,1.141,26.251.488,39.412.406,25.424-.157,50.841.481,76.244,1.443,55.409,2.1,110.741,5.119,166.214,3.744" transform="translate(-53.125 -2416.126)" fill="none" stroke="#bfbfbf" stroke-miterlimit="10" stroke-width="1"/>
        </g>
        <g id="Group_1141" data-name="Group 1141" transform="translate(0 509.134)">
          <path id="Path_844" data-name="Path 844" d="M53.125,2458.541c56.516.819,110.011-19.929,165.411-27.593,22.709-3.141,46.517-4.158,68.693,2.589a93.527,93.527,0,0,1,26.943,13.162c13.434,9.539,23.44,22.966,36.348,33.215,20.145,16,44.075,26.858,70.086,28.3,23.094,1.284,45.815-4.471,67.359-12.177,39.507-14.134,77.49-36.707,120.478-37.82,26.2-.678,52.093-5.665,77.582-11.388,33.6-7.545,66.8-16.81,99.92-26.174,63.065-17.829,126.458-38.538,191.511-48.119a230.9,230.9,0,0,1,67.778-.381c27.54,3.993,54.611,11,81.365,18.465,59.334,16.552,117.685,37.189,178,50.143a376.043,376.043,0,0,0,43.87,7.118c13.053,1.22,26.086.745,39.174.641,26.928-.214,53.856.012,80.782.388,56.72.793,113.432,2.084,170.159,1.145" transform="translate(-53.125 -2369.842)" fill="none" stroke="#bfbfbf" stroke-miterlimit="10" stroke-width="1"/>
        </g>
        <g id="Group_1142" data-name="Group 1142" transform="translate(0 495.58)">
          <path id="Path_845" data-name="Path 845" d="M53.125,2409.44c57.682-.522,112.587-21.77,169.483-28.51,22.629-2.681,46.429-3.291,68.324,3.886a86.342,86.342,0,0,1,27.3,14.656c12.873,10.358,22.749,23.936,35.44,34.616,19.767,16.636,43.39,29.234,69.73,30.728,22.149,1.256,43.69-5.367,63.8-13.921,38.727-16.475,74.824-40.564,118.309-41.462,27.067-.559,53.906-5.992,80.216-11.906,32.633-7.335,64.919-16.129,97.143-25.029,64.607-17.843,129.5-38.655,195.985-48.6a231.069,231.069,0,0,1,68.49-.5c27.568,4.018,54.641,11.178,81.373,18.81,59.114,16.875,117.21,38.017,177.417,50.953,53.583,11.513,109.105,7.665,163.618,7.67q85.93.008,171.861,0" transform="translate(-53.125 -2321.088)" fill="none" stroke="#bfbfbf" stroke-miterlimit="10" stroke-width="1"/>
        </g>
        <g id="Group_1143" data-name="Group 1143" transform="translate(0 482.567)">
          <path id="Path_846" data-name="Path 846" d="M53.125,2361.744c56.785-.442,111.416-18.738,167.608-24.505,22.751-2.335,46.362-2.788,68.58,3.34a99.6,99.6,0,0,1,28.268,12.6c13.251,8.706,23.5,21.157,36.178,30.674,20.4,15.311,44.223,26.113,70.1,27.236,22.138.96,43.747-5.084,64.166-12.987,39.2-15.171,75.109-35.919,118.19-37.19,27.041-.8,54.094-5.933,80.525-11.254,31.957-6.434,63.65-14.107,95.261-22.015,64.384-16.108,128.425-34.369,193.6-47.166,11.755-2.308,23.839-5.025,35.808-5.954,10.974-.852,22.492.714,33.344,2.145,27.395,3.61,54.382,10.12,81.067,17.1,59.62,15.587,118.244,35.136,178.5,48.3,14.488,3.165,29.1,5.934,43.846,7.645,12.781,1.483,25.348,1.065,38.174.9,27.289-.352,54.582.055,81.865.656,57.79,1.273,115.6,3.521,173.406,1.878" transform="translate(-53.125 -2274.28)" fill="none" stroke="#bfbfbf" stroke-miterlimit="10" stroke-width="1"/>
        </g>
        <g id="Group_1144" data-name="Group 1144" transform="translate(0 472.03)">
          <path id="Path_847" data-name="Path 847" d="M53.125,2320.478c55.913-.364,110.243-15.7,165.733-20.5,22.87-1.98,46.331-2.292,68.835,2.794a119.926,119.926,0,0,1,29.232,10.54c13.568,7.1,24.229,18.275,37.006,26.622,21.144,13.813,45.234,22.77,70.744,23.41,22.251.558,44.018-5.052,64.814-12.388,20.364-7.185,40.065-16.087,60.524-23.017a197.085,197.085,0,0,1,58.048-10.512c26.7-.865,53.508-5.3,79.776-9.763,30.944-5.263,61.706-11.548,92.371-18.2,63.277-13.731,126.113-29.308,189.142-44.084,12.005-2.814,24.276-6.605,36.491-8.352,10.612-1.517,22.26-.036,32.85,1,27.24,2.671,54.193,8.092,80.875,14,60.167,13.319,119.428,30.478,179.818,42.832,14.59,2.985,29.264,5.674,44.048,7.546,12.805,1.622,25.186,1.182,38.04,1.025,27.784-.339,55.568.858,83.3,2.4,58.859,3.269,117.845,8.615,176.844,6.048" transform="translate(-53.125 -2236.376)" fill="none" stroke="#bfbfbf" stroke-miterlimit="10" stroke-width="1"/>
        </g>
        <g id="Group_1145" data-name="Group 1145" transform="translate(0 463.138)">
          <path id="Path_848" data-name="Path 848" d="M53.125,2283.484c55.071-.289,109.067-12.651,163.857-16.5,22.985-1.614,46.339-1.805,69.091,2.249a152.646,152.646,0,0,1,30.2,8.482c13.826,5.558,24.938,15.318,37.908,22.479,21.968,12.132,46.368,19.232,71.618,19.309,22.463.069,44.465-5.226,65.693-12.07,20.516-6.615,40.509-14.734,61.144-21a220.1,220.1,0,0,1,58.224-9.381c55.765-1.729,111.99-11.657,166.788-21.3,61.445-10.807,122.677-23.562,182.947-39.625,12.2-3.251,24.409-7.834,36.75-10.413,10.3-2.152,21.952-1.166,32.382-.673,27.1,1.282,54.062,5.25,80.779,9.746,60.727,10.22,120.7,24.32,181.33,35.018,14.71,2.6,29.47,4.986,44.305,6.772,12.84,1.546,25.253,1.121,38.135,1.118,28.558-.007,57.081,2.3,85.484,5.045,60.351,5.836,121.066,14.978,181.859,12.132" transform="translate(-53.125 -2204.39)" fill="none" stroke="#bfbfbf" stroke-miterlimit="10" stroke-width="1"/>
        </g>
        <g id="Group_1146" data-name="Group 1146" transform="translate(0 454.96)">
          <path id="Path_849" data-name="Path 849" d="M53.125,2248.345c54.263-.216,107.883-9.594,161.982-12.493,23.092-1.238,46.385-1.334,69.347,1.7a209.8,209.8,0,0,1,31.16,6.422c14.033,4.086,25.629,12.316,38.871,18.266,45.494,20.44,92.708,16.813,139.433,3.008,20.735-6.126,41.072-13.527,61.946-19.2a244.24,244.24,0,0,1,58.553-8.44c53.4-1.4,107.1-6.872,160.052-13.533,59.032-7.427,118.258-17.238,175.364-34.066,12.381-3.648,24.369-8.385,36.669-12.2,9.808-3.047,21.777-2.6,31.936-2.773,26.964-.472,53.972,1.754,80.76,4.57,61.269,6.442,121.992,16.947,183,25.328,14.84,2.039,29.7,3.956,44.608,5.458,12.882,1.3,25.5.925,38.413,1.185,29.569.595,59.024,4.265,88.263,8.417,62.144,8.825,125.038,22.3,188.137,19.746" transform="translate(-53.125 -2174.973)" fill="none" stroke="#bfbfbf" stroke-miterlimit="10" stroke-width="1"/>
        </g>
        <g id="Group_1147" data-name="Group 1147" transform="translate(0 445.114)">
          <path id="Path_850" data-name="Path 850" d="M53.125,2208.874c53.5-.145,106.686-6.529,160.107-8.49,23.191-.851,46.47-.881,69.6,1.157,10.771.949,21.5,2.351,32.124,4.364,14.2,2.692,26.312,9.3,39.879,14,46.935,16.248,94.814,11.2,141.833-1.558,40.5-10.987,79.458-24.423,121.88-25.2,50.751-.93,101.625-1.635,152.284-4.951,56.17-3.676,113-10.456,166.742-27.68,12.414-3.979,24.2-9.156,36.333-13.795,9.62-3.676,21.344-4.244,31.506-5.192,26.821-2.5,53.905-2.235,80.8-1.3,61.762,2.155,123.27,8.66,184.781,14.231,14.971,1.356,29.949,2.669,44.944,3.74,12.961.926,25.862.635,38.828,1.232,30.764,1.416,61.291,6.636,91.491,12.333,64.145,12.1,129.551,30.307,195.36,28.507" transform="translate(-53.125 -2139.556)" fill="none" stroke="#bfbfbf" stroke-miterlimit="10" stroke-width="1"/>
        </g>
        <g id="Group_1148" data-name="Group 1148" transform="translate(0 430.997)">
          <path id="Path_851" data-name="Path 851" d="M53.125,2158.31c52.781-.075,105.472-3.461,158.232-4.486,23.284-.452,46.59-.451,69.858.612,11.046.5,22.082,1.248,33.089,2.306,14.337,1.378,27,6.292,40.917,9.692,48.323,11.805,96.845,5.509,144.417-6.346,40.826-10.174,80.944-22.623,123.426-22.97,100.451-.82,203.98,17.037,301.253-16.568,12.384-4.278,23.952-9.835,35.829-15.249,9.493-4.328,20.882-6.02,31.087-7.824,26.661-4.715,53.844-6.554,80.875-7.627,62.184-2.468,124.495-.234,186.642,2.195,28.144,1.1,56.566.914,84.637,3.018,32.089,2.407,63.771,9.292,95.017,16.61,34.181,8,68.112,17.033,102.395,24.614,33.054,7.309,66.813,13.756,100.819,13.421" transform="translate(-53.125 -2088.775)" fill="none" stroke="#bfbfbf" stroke-miterlimit="10" stroke-width="1"/>
        </g>
        <g id="Group_1149" data-name="Group 1149" transform="translate(0 407.286)">
          <path id="Path_852" data-name="Path 852" d="M53.125,2082.831c52.119-.008,104.237-.372,156.356-.482q35.057-.074,70.113.065,17.026.083,34.052.248c5.38.053,11.047-.377,16.369.488,8.57,1.393,16.98,3.633,25.6,4.881,49.58,7.173,98.731-.189,147.093-11.246,41.145-9.406,82.48-21,125.057-20.841,45.265.171,90.071,9.418,135.026,13.579,49.592,4.59,100.57,3.965,147.763-13.534,12.314-4.566,23.691-10.5,35.239-16.638,9.408-5,20.418-7.845,30.674-10.563,26.48-7.017,53.776-11.037,80.971-14.187,62.522-7.243,125.639-9.42,188.542-10.31,28.358-.4,57.309-2.023,85.558.923,33.482,3.492,66.36,12.1,98.693,21.067,35.791,9.922,71.259,20.964,107.183,30.421,33.963,8.941,68.875,17.194,104.2,17.523" transform="translate(-53.125 -2003.485)" fill="none" stroke="#bfbfbf" stroke-miterlimit="10" stroke-width="1"/>
        </g>
        <g id="Group_1150" data-name="Group 1150" transform="translate(0 378.95)">
          <path id="Path_853" data-name="Path 853" d="M53.125,1995.34c51.519.058,102.977,2.723,154.481,3.522,23.456.364,46.922.329,70.369-.48q17.522-.6,35.016-1.811c5.613-.392,11.416-1.351,17.043-1.073,8.662.428,17.3,1.7,25.979,2.117,50.627,2.436,100.432-5.845,149.769-16.145,41.456-8.654,84.007-19.421,126.686-18.712,42.806.712,84.539,14.9,126.226,22.981,46.074,8.931,93.724,11.328,138.1-6.323,12.234-4.866,23.455-11.207,34.65-18.026,9.343-5.69,19.971-9.654,30.261-13.3,26.28-9.314,53.692-15.519,81.066-20.748,62.777-11.99,126.686-18.584,190.443-22.815,28.631-1.9,57.916-4.945,86.48-1.172,34.885,4.607,68.951,14.945,102.368,25.525,37.4,11.842,74.407,24.885,111.97,36.228,34.859,10.527,70.922,20.6,107.584,21.626" transform="translate(-53.125 -1901.559)" fill="none" stroke="#bfbfbf" stroke-miterlimit="10" stroke-width="1"/>
        </g>
        <g id="Group_1151" data-name="Group 1151" transform="translate(0 351.085)">
          <path id="Path_854" data-name="Path 854" d="M53.125,1909.072c50.985.122,101.686,5.823,152.606,7.526a668.76,668.76,0,0,0,70.625-1.026q18.053-1.308,35.981-3.869c5.865-.844,11.8-2.287,17.716-2.633,8.746-.511,17.58-.234,26.344-.627,51.4-2.308,101.927-11.405,152.353-20.933,41.765-7.891,85.452-17.728,128.234-16.48,40.811,1.189,79.481,20.165,117.769,32.109,42.5,13.258,86.731,18.585,128.784.613,22.594-9.656,41.469-25.462,63.988-35.414,26.066-11.52,53.587-19.838,81.142-27.077,62.958-16.54,127.628-27.42,192.3-34.85,28.931-3.324,58.371-7.669,87.345-3.126,36.239,5.683,71.442,17.684,105.894,29.8,38.959,13.7,77.456,28.678,116.607,41.852,35.693,12.01,72.859,23.863,110.8,25.529" transform="translate(-53.125 -1801.326)" fill="none" stroke="#bfbfbf" stroke-miterlimit="10" stroke-width="1"/>
        </g>
        <g id="Group_1152" data-name="Group 1152" transform="translate(0 324.335)">
          <path id="Path_855" data-name="Path 855" d="M53.125,1825.7c50.526.186,100.362,8.928,150.731,11.53a443.5,443.5,0,0,0,70.88-1.571,369.949,369.949,0,0,0,36.945-5.927c15.041-3.2,29.808-5.483,45.068-7.529,51.846-6.953,103.193-16.812,154.753-25.5,22.6-3.806,45.25-7.332,68.025-9.927,20.194-2.3,41.22-4.928,61.589-4.118,39.444,1.569,75.092,25.078,110,40.692,38.947,17.42,79.856,25.56,120.162,7,22.744-10.474,41.072-27.816,63.223-39.423,25.852-13.546,53.456-23.834,81.181-32.945,63.08-20.731,128.46-35.625,194.087-45.948,29.2-4.593,58.7-10.007,88.1-4.8,37.49,6.644,73.73,20.194,109.121,33.717,40.418,15.444,80.306,32.225,120.943,47.111,36.411,13.338,74.589,26.866,113.689,29.032" transform="translate(-53.125 -1705.102)" fill="none" stroke="#bfbfbf" stroke-miterlimit="10" stroke-width="1"/>
        </g>
        <g id="Group_1153" data-name="Group 1153" transform="translate(0 299.087)">
          <path id="Path_856" data-name="Path 856" d="M53.125,1746.226c50.144.249,99,12.035,148.855,15.534a334.416,334.416,0,0,0,71.136-2.117c28.54-4.114,55.843-13.566,83.938-19.729,51.976-11.4,104.192-22.007,156.875-29.729,22.858-3.35,45.8-6.138,68.827-8.127,20.329-1.756,41.489-4.129,61.918-3.176,38.794,1.81,71.537,29.487,103.265,48.454,16.415,9.813,33.907,18.748,52.979,22.1,20.54,3.612,41.072-.322,59.6-9.546,22.95-11.425,40.775-30.211,62.7-43.315,25.638-15.326,53.3-27.351,81.161-38.121a1136.064,1136.064,0,0,1,195.755-55.638c15.593-2.981,31.272-5.6,47.039-7.514a129.992,129.992,0,0,1,41.637,1.47c38.58,7.412,75.718,22.346,111.9,37.089,41.724,17,82.857,35.406,124.826,51.821,36.958,14.456,76.018,29.5,116.083,31.936" transform="translate(-53.125 -1614.281)" fill="none" stroke="#bfbfbf" stroke-miterlimit="10" stroke-width="1"/>
        </g>
        <g id="Group_1154" data-name="Group 1154" transform="translate(0 276.326)">
          <path id="Path_857" data-name="Path 857" d="M53.125,1673.215c49.845.311,97.6,15.141,146.98,19.538a270.141,270.141,0,0,0,71.391-2.663c29.647-5.282,57.121-17.3,85.805-25.93a953.6,953.6,0,0,1,158.628-33.513c23.07-2.827,46.24-4.8,69.448-6.108,20.465-1.151,41.594-3.03,62.094-2.045,38.87,1.868,68.948,33.187,97.906,55.125,14.7,11.135,30.663,21.805,48.913,26.177,19.842,4.754,39.772.381,57.47-9.162,23.182-12.5,40.619-32.62,62.487-47.051,25.429-16.782,53.117-30.235,81.065-42.373a1049.131,1049.131,0,0,1,197.266-63.451c15.646-3.352,31.412-6.278,47.3-8.288a125.1,125.1,0,0,1,41.732,1.563c39.457,7.909,77.309,24.011,114.084,39.737,42.829,18.314,85.007,38.1,128.106,55.8,37.271,15.306,77.056,31.68,117.818,34.04" transform="translate(-53.125 -1532.409)" fill="none" stroke="#bfbfbf" stroke-miterlimit="10" stroke-width="1"/>
        </g>
        <g id="Group_1155" data-name="Group 1155" transform="translate(0 256.69)">
          <path id="Path_858" data-name="Path 858" d="M53.125,1608.318c49.63.374,96.166,18.245,145.105,23.542a227.84,227.84,0,0,0,71.647-3.209c30.857-6.512,58.353-20.972,87.6-32.04a616.986,616.986,0,0,1,159.92-36.74c23.218-2.218,46.528-3.291,69.843-3.816,20.575-.464,41.512-1.553,62.08-.677,39.644,1.688,67.43,35.882,94.268,60.428,13.3,12.168,28.011,24.373,45.721,29.559,19.467,5.7,39.114.52,56.2-9.461,23.426-13.684,40.639-35.017,62.674-50.591,25.234-17.835,52.9-32.332,80.874-45.471,63.195-29.683,130.3-53.607,198.584-68.92,29.314-6.573,59.222-12.7,89.1-6.7,40.062,8.05,78.41,25.064,115.52,41.479,43.682,19.322,86.656,40.193,130.633,58.866,37.285,15.832,77.62,33.3,118.729,35.145" transform="translate(-53.125 -1461.777)" fill="none" stroke="#bfbfbf" stroke-miterlimit="10" stroke-width="1"/>
        </g>
        <g id="Group_1156" data-name="Group 1156" transform="translate(0 240.26)">
          <path id="Path_859" data-name="Path 859" d="M53.125,1551.747c49.5.437,94.689,21.345,143.23,27.545a197.871,197.871,0,0,0,71.9-3.755c32.118-7.8,59.546-24.569,89.3-38.041,50.733-22.972,105.045-35.7,160.657-39.3,43.709-2.826,88.044-1.526,131.8-.22,41.077,1.227,67.076,37.188,92.694,64.093,12.309,12.927,26.115,26.4,43.579,32.108,19.51,6.382,39.243-.027,55.962-10.58,23.687-14.95,40.866-37.388,63.337-53.9,25.057-18.409,52.649-33.485,80.568-47.184,63.17-31,130.707-56.478,199.668-71.573,29.038-6.356,59.262-11.5,88.823-5.823,40.335,7.746,78.926,25.377,116.06,42.134,44.234,19.96,87.7,41.561,132.256,60.834,36.926,15.974,77.644,34.284,118.652,35.052" transform="translate(-53.125 -1402.676)" fill="none" stroke="#bfbfbf" stroke-miterlimit="10" stroke-width="1"/>
        </g>
        <g id="Group_1157" data-name="Group 1157" transform="translate(0 227.193)">
          <path id="Path_860" data-name="Path 860" d="M53.125,1503.911c49.132.38,95.047,18.369,143.421,23.99a223.275,223.275,0,0,0,73.389-3.256c31.325-6.819,59.357-21.8,89.149-32.952A620.332,620.332,0,0,1,519.7,1455c22.01-2.031,44.1-3,66.2-3.453,21.37-.441,43.068-1.4,64.429-.595,40.154,1.5,67.378,36.585,93.9,61.875,12.623,12.037,26.488,24.081,43.37,29.76,19.733,6.639,39.831,1.448,57.218-8.859,22.826-13.53,40.243-34.119,61.678-49.6,24.6-17.767,50.961-33.178,77.843-47.3,61.779-32.461,128.276-59.876,197.008-73.91,31.568-6.446,64.933-10.355,96.842-4.008,39.669,7.89,77.535,25.265,114.024,41.987,42.919,19.668,85.075,40.957,128.364,59.839,36.843,16.07,77.093,33.707,118.012,34.7" transform="translate(-53.125 -1355.674)" fill="none" stroke="#bfbfbf" stroke-miterlimit="10" stroke-width="1"/>
        </g>
        <g id="Group_1158" data-name="Group 1158" transform="translate(0 216.19)">
          <path id="Path_861" data-name="Path 861" d="M53.125,1461.434c48.926.325,95.54,15.55,143.9,20.462a258.043,258.043,0,0,0,75.084-2.888c29.382-5.672,56.677-17.992,85.217-26.548,52.646-15.782,106.451-27.71,161.093-34.267,22.131-2.656,44.359-4.459,66.62-5.626,20.823-1.091,42.048-2.53,62.906-1.927,40.083,1.158,69.189,34.573,97.31,58.56,13.647,11.641,28.465,23.1,45.883,28.571,20.017,6.283,40.344,2.216,58.4-7.709,12.118-6.661,22.745-15.4,32.94-24.615,8.93-8.068,19.4-14.823,29.33-21.639,24.8-17.027,50.545-32.739,76.94-47.237,60.7-33.34,126.169-61.9,194.785-74.484,34.658-6.358,71.806-8.957,106.491-1.244,36.657,8.153,71.435,24.4,105.144,40.376,40.493,19.187,80.209,39.975,121.115,58.309,35.476,15.9,74.155,32.836,113.743,33.774" transform="translate(-53.125 -1316.092)" fill="none" stroke="#bfbfbf" stroke-miterlimit="10" stroke-width="1"/>
        </g>
        <g id="Group_1159" data-name="Group 1159" transform="translate(0 206.688)">
          <path id="Path_862" data-name="Path 862" d="M53.125,1422.857c49.476.276,97.362,13.157,146.465,17.135a305.617,305.617,0,0,0,72.351-2.286,294.714,294.714,0,0,0,37.488-8.505c15.86-4.683,31.381-9.108,47.566-12.691,53.445-11.832,107.131-23,161.36-30.76,41.3-5.908,83.9-10.968,125.708-10.35,79.128,1.17,123.8,117.282,209.477,76.924,13.45-6.336,24.251-15.536,35.84-24.544,9.52-7.4,20.592-13.378,30.739-19.913,24.194-15.584,48.557-30.919,73.564-45.207,60.237-34.417,125.068-63.963,194.145-75.5,36.748-6.136,76.781-7.911,113.394.266,34.1,7.616,66.331,23.368,97.352,38.834,37.98,18.934,75.106,39.551,113.592,57.495,32.559,15.181,68.074,30.856,104.7,31.506" transform="translate(-53.125 -1281.914)" fill="none" stroke="#bfbfbf" stroke-miterlimit="10" stroke-width="1"/>
        </g>
        <g id="Group_1160" data-name="Group 1160" transform="translate(0 198.336)">
          <path id="Path_863" data-name="Path 863" d="M53.125,1387.266c49.272.222,97.563,10.316,146.591,13.606a379.388,379.388,0,0,0,73.033-1.693,340.194,340.194,0,0,0,37.26-6.861c7.289-1.763,14.487-4.347,21.9-5.473,8.745-1.328,17.549-2.352,26.307-3.6,53.021-7.57,105.613-17.519,158.436-26.255,40.833-6.752,83.17-13.759,124.719-12.864,40.8.878,74.413,30.2,106.666,51.35,16.549,10.85,34.037,21.164,53.408,26.192a92.475,92.475,0,0,0,60.646-5.03c12.181-5.306,22.609-12.862,33.21-20.691,9.949-7.347,22.18-12.6,32.816-18.984,24.735-14.842,48.982-30.459,73.852-45.084,61.188-35.983,126.815-66.482,198-76.217,37.955-5.191,79.712-5.843,117.21,3.118,31.284,7.476,60.51,22.929,88.569,38.053,33.441,18.023,66.059,37.569,100.129,54.442,29.11,14.418,60.953,28.863,94.132,29.088" transform="translate(-53.125 -1251.871)" fill="none" stroke="#bfbfbf" stroke-miterlimit="10" stroke-width="1"/>
        </g>
        <g id="Group_1161" data-name="Group 1161" transform="translate(0 191.128)">
          <path id="Path_864" data-name="Path 864" d="M53.125,1354.645c50.061.171,99.573,7.889,149.5,10.256a498.386,498.386,0,0,0,72.1-1.419q17.737-1.734,35.28-4.961c7.142-1.316,14.313-3.473,21.563-3.981,8.988-.63,18.023-.8,27.019-1.38,53.276-3.44,105.668-12.173,158.065-21.92,39.469-7.343,80.107-15.471,120.472-14.735,41.725.761,77.9,27.89,112.6,47.591,36.993,21,77.97,37.059,120.232,21.108,12.32-4.65,22.716-11.615,33.663-18.71,10.669-6.915,23.552-11.341,34.726-17.572,24.08-13.427,47.176-28.506,70.728-42.8,61.883-37.551,127.622-68.972,200.57-77.6a383.08,383.08,0,0,1,72.9-1.528c17.226,1.259,35.27,2.615,52.05,7.04,27.939,7.368,53.661,22.435,78.2,37.1,27.916,16.677,55.077,34.637,83.7,50.14,25.3,13.7,54.269,28.1,83.9,27.268" transform="translate(-53.125 -1225.941)" fill="none" stroke="#bfbfbf" stroke-miterlimit="10" stroke-width="1"/>
        </g>
        <g id="Group_1162" data-name="Group 1162" transform="translate(0 183.677)">
          <path id="Path_865" data-name="Path 865" d="M53.125,1321.4c50.065.115,99.9,5.161,149.9,6.774,24.33.785,48.7.685,72.991-.916q17.619-1.162,35.146-3.366c7.245-.917,14.486-2.566,21.792-2.261,9.233.385,18.458.764,27.7.861,52.312.549,103.513-6.586,154.583-17.172,38.32-7.943,77.243-17.023,116.651-16.592,43.193.472,82.083,25.438,119.544,43.754,39.67,19.4,83.4,35.185,127.521,20.817,12.54-4.083,22.893-10.991,34.432-17,10.724-5.584,22.739-8.98,33.6-14.529,25.763-13.16,49.845-29.315,74.339-44.585,60.172-37.513,123.6-67.98,195.223-75.789a408.809,408.809,0,0,1,82.375-.34c17.066,1.6,35.148,2.989,51.685,7.74,23.42,6.728,44.563,20.5,64.51,33.953,24.035,16.207,47.151,33.8,72.01,48.8,21.261,12.823,46.081,25.945,71.8,24.624" transform="translate(-53.125 -1199.142)" fill="none" stroke="#bfbfbf" stroke-miterlimit="10" stroke-width="1"/>
        </g>
        <g id="Group_1163" data-name="Group 1163" transform="translate(0 176.026)">
          <path id="Path_866" data-name="Path 866" d="M53.125,1287.623c50.108.057,100.162,2.509,150.256,3.324,24.643.4,49.3.375,73.931-.438q17.511-.578,35-1.7c5.638-.364,11.476-1.316,17.129-1.077,10.3.434,20.764,2.725,31.072,3.626,51.418,4.5,101.712-.607,151.84-12.054,38.393-8.767,77.071-19.559,116.855-18.611,44.337,1.056,85.541,23.792,125.432,40.469,42.011,17.563,88.036,32.442,133.668,19.894a145.335,145.335,0,0,0,32.018-13.328c5.956-3.31,13.015-4.568,19.438-6.942,6.487-2.4,12.835-5.154,19.057-8.157,24.89-12.011,47.765-27.7,70.85-42.7,26.949-17.519,54.4-34.372,83.886-47.452a357.382,357.382,0,0,1,114.111-29.4,434.106,434.106,0,0,1,82.168,1.089c18.251,1.893,38.406,3.263,56,9.129,19.75,6.586,36.942,19.651,53.009,32.389,19.165,15.193,37.365,31.661,57.531,45.589,17.4,12.017,38.132,23.79,60.161,22.039" transform="translate(-53.125 -1171.618)" fill="none" stroke="#bfbfbf" stroke-miterlimit="10" stroke-width="1"/>
        </g>
        <g id="Group_1164" data-name="Group 1164" transform="translate(0 167.726)">
          <path id="Path_867" data-name="Path 867" d="M53.125,1252.168q76.959,0,153.918-.094,34.952-.015,69.9.012,18.247.017,36.493.05c5.736.01,11.738-.412,17.409.531,9.873,1.644,19.6,4.183,29.5,5.8,50.849,8.315,100.7,5.375,150.492-7.147,37.273-9.374,74.012-21.034,112.928-20.383,45.608.762,88.988,20.866,131.1,36.02,45.264,16.287,94.429,31.141,142.809,20.21,11.534-2.606,22.06-6.919,32.806-11.652,5.342-2.353,11.37-3.138,16.966-4.857a174.275,174.275,0,0,0,19.633-7.406c24.96-11.105,47.341-27.05,69.7-42.442,26.2-18.035,52.8-35.57,81.844-48.9,35.039-16.079,72.53-25.445,110.987-28.764,30.374-2.621,61.069-1.336,91.3,2.267,14.959,1.782,29.855,4.151,44.663,6.9a64.281,64.281,0,0,1,11.851,3.235c16.476,6.446,30.084,18.917,42.557,30.981,14.42,13.947,27.859,28.971,43.354,41.8,14.141,11.7,31.509,22.553,50.776,20.445" transform="translate(-53.125 -1141.764)" fill="none" stroke="#bfbfbf" stroke-miterlimit="10" stroke-width="1"/>
        </g>
        <g id="Group_1165" data-name="Group 1165" transform="translate(0 158.496)">
          <path id="Path_868" data-name="Path 868" d="M53.125,1214.3c51.33-.064,102.6-2.677,153.918-3.525,24.122-.4,48.256-.39,72.369.468q17.308.616,34.585,1.853c16.5,1.2,31.586,6.539,47.625,10.294,49.918,11.685,99.073,10.984,148.355-2.747,36.07-10.049,70.806-22.537,108.827-22.086,47.326.56,93.1,18.507,137.7,32.225,47.442,14.59,98.236,28.594,148.271,20.288a157.861,157.861,0,0,0,33.5-9.386c6.055-2.458,12.79-3.013,19.126-4.748a147.235,147.235,0,0,0,19.779-7.008c23.978-10.414,44.936-26.334,65.709-41.829,23.752-17.716,47.8-35.087,74.467-48.349,36.617-18.209,76.838-28.046,117.7-30.457,31.268-1.844,62.7-.091,93.7,4.178,15,2.066,30.112,4.307,44.906,7.543a50.162,50.162,0,0,1,9.816,3.148c14.18,6.332,24.968,18.54,34.558,30.253,18.169,22.191,40.229,61.975,74.576,57.364" transform="translate(-53.125 -1108.563)" fill="none" stroke="#bfbfbf" stroke-miterlimit="10" stroke-width="1"/>
        </g>
        <g id="Group_1166" data-name="Group 1166" transform="translate(0 147.742)">
          <path id="Path_869" data-name="Path 869" d="M53.125,1172.467c51.961-.13,103.7-5.3,155.605-6.965a692.552,692.552,0,0,1,73.145,1.021c10.93.806,21.835,1.971,32.674,3.581,16.864,2.5,32.147,9.434,48.41,14.333,27.355,8.24,55.893,13.456,84.581,12.493,20.632-.693,40.8-4.809,60.475-10.827,35.326-10.806,68.5-24.7,106.171-24.369,48.983.435,96.9,16.217,143.8,28.519,50.013,13.12,102.785,26.293,154.906,20.053,12.408-1.486,23.752-4.883,35.743-8.026,12.733-3.337,24.956-4.678,37.178-10.055,22.559-9.922,41.58-25.933,60.255-41.559,22.037-18.44,44.353-36.566,69.9-50.14,34.566-18.366,73.008-27.519,112.043-29.923,32.559-2.005,65.312.315,97.555,4.905,16.125,2.3,32.555,4.67,48.365,8.546a44.658,44.658,0,0,1,9.309,3.311c12.146,6.034,20.652,17.307,27.856,28.326,14.278,21.843,29.246,59.738,61.852,55.058" transform="translate(-53.125 -1069.879)" fill="none" stroke="#bfbfbf" stroke-miterlimit="10" stroke-width="1"/>
        </g>
        <g id="Group_1167" data-name="Group 1167" transform="translate(0 135.16)">
          <path id="Path_870" data-name="Path 870" d="M53.125,1125.889c52.52-.2,104.562-7.9,156.958-10.4,24.024-1.146,48.178-1.18,72.111,1.43a287.543,287.543,0,0,1,32.363,5.338c17.094,3.873,32.457,12.178,48.844,18.2,27.261,10.014,56.129,17.086,85.384,16.635,19.924-.307,39.338-4.431,58.129-10.8,34.543-11.716,66.161-27.068,103.549-26.807,51.013.356,101.346,14.357,150.775,25.361,52.167,11.614,106.481,23.695,160.3,19.362,11.739-.945,22.8-3.447,34.3-5.687,12.083-2.355,23.229-3.5,34.647-8.551,20.793-9.2,37.34-25.135,53.258-40.816,19.412-19.123,38.906-38.146,62.422-52.392,32.873-19.914,70.718-29.118,108.963-31.448,33.577-2.046,67.457.658,100.645,5.751,16.436,2.522,33.178,4.976,49.283,9.121a47.439,47.439,0,0,1,9.689,3.5c12.079,6.1,19.907,17.5,26.168,28.988,12.291,22.545,22.678,56.393,55.105,52.2" transform="translate(-53.125 -1024.618)" fill="none" stroke="#bfbfbf" stroke-miterlimit="10" stroke-width="1"/>
        </g>
        <g id="Group_1168" data-name="Group 1168" transform="translate(0 120.33)">
          <path id="Path_871" data-name="Path 871" d="M53.125,1073.475c53.6-.271,106.367-10.689,159.759-13.925,23.029-1.4,46.269-1.44,69.151,1.8a211.2,211.2,0,0,1,32.019,6.993c17.167,5.232,32.433,14.681,48.841,21.777,27.247,11.784,56.567,20.9,86.571,21.022,19.311.08,38.069-4.021,56.068-10.747,16.6-6.2,32.414-14.293,49.059-20.4a153.273,153.273,0,0,1,54.816-9.54c51.471.411,102.7,12.357,153.021,21.87,53.388,10.094,108,20.926,162.623,19.511a259.173,259.173,0,0,0,34.484-3.185c11.94-1.92,23.166-2.74,34.258-8.106,19.5-9.431,33.215-26.832,46.321-43.321,15.2-19.121,30.721-38,50.822-52.368,30.31-21.664,67.221-30.759,104.134-32.967,32.691-1.956,65.584.991,97.875,5.964,17.777,2.738,35.753,5.708,53.2,10.094a57.385,57.385,0,0,1,11.077,3.935c12.525,6.069,21.007,16.994,27.517,28.858,6.459,11.772,11.1,24.7,19.12,35.585,9.41,12.765,23.033,18.153,38.9,16.671" transform="translate(-53.125 -971.275)" fill="none" stroke="#bfbfbf" stroke-miterlimit="10" stroke-width="1"/>
        </g>
        <g id="Group_1169" data-name="Group 1169" transform="translate(0 102.802)">
          <path id="Path_872" data-name="Path 872" d="M53.125,1014.054c53.377-.339,105.545-12.906,158.579-17.182,24.277-1.958,48.958-2.191,72.977,2.3a163.86,163.86,0,0,1,31.43,9.082c15.8,6.4,30.018,16.187,45.26,23.754,27.36,13.583,57.3,24.958,88.279,25.771,19.714.517,38.718-3.957,56.757-11.6,15.92-6.744,30.9-15.452,46.862-22.1a135.009,135.009,0,0,1,53.267-10.833c52.568.243,105.084,10.289,156.8,18.564,55.164,8.825,110.911,18.66,166.926,19.641a318.262,318.262,0,0,0,32.408-.915c10.983-.929,21.289-1.784,31.07-7.307,16.714-9.438,26.079-27.326,34.862-43.474,11.12-20.444,22.547-40.849,40.266-56.548,25.814-22.871,60.189-31.861,94.095-34.229,32.523-2.272,65.294.858,97.4,5.945,18.779,2.975,38.077,6.154,56.428,11.135a85.873,85.873,0,0,1,12.4,4.326c14.5,6.437,25.343,17.424,33.973,30.377,7.952,11.935,14.053,25.3,23.838,35.959,12.28,13.383,29.129,18.046,47.068,17.2" transform="translate(-53.125 -908.226)" fill="none" stroke="#bfbfbf" stroke-miterlimit="10" stroke-width="1"/>
        </g>
        <g id="Group_1170" data-name="Group 1170" transform="translate(0 82.105)">
          <path id="Path_873" data-name="Path 873" d="M53.125,946.4c54.16-.413,106.636-15.526,160.316-20.635,24.235-2.307,49.066-2.605,72.906,2.9,28.928,6.685,51.163,24.51,76.773,38.414,27.153,14.742,57.317,27.73,88.766,28.7,19.14.589,37.445-4.136,54.63-12.229,16.1-7.583,30.941-17.506,47.058-25.06,16.454-7.714,33.651-12.055,51.913-12.09,52.933-.1,106.169,8.426,158.481,15.479,56.168,7.573,112.406,16.244,169.008,20,10.97.728,22.017,1.385,33.017,1.257,8.469-.1,16.765-1.327,23.784-6.347,14.344-10.259,18.084-30.418,22.239-46.242,5.393-20.539,11.258-41.465,24.749-58.458,20.46-25.771,53.588-35.13,85.414-37.548,30.488-2.316,61.245.909,91.334,5.647,25.328,3.988,52.409,7.867,76.36,17.536,17.866,7.213,32.767,18.759,45.548,32.9,11.057,12.229,20.644,25.922,33.519,36.438,17.7,14.456,39.414,19.094,61.963,19.341" transform="translate(-53.125 -833.775)" fill="none" stroke="#bfbfbf" stroke-miterlimit="10" stroke-width="1"/>
        </g>
        <g id="Group_1171" data-name="Group 1171" transform="translate(0 77.784)">
          <path id="Path_874" data-name="Path 874" d="M53.125,921.278c53.934-.384,106.385-14.486,159.9-19.246,24.262-2.158,49.045-2.423,72.965,2.708,28.571,6.13,50.644,22.569,76.12,35.807,26.92,13.988,56.554,25.853,87.359,26.741,19.2.553,37.7-3.872,55.224-11.389,16.451-7.055,31.82-16.318,48.282-23.348,16.755-7.155,34.224-11.305,52.533-11.262,52.795.125,105.87,8.392,158.083,15.254,55.8,7.335,111.651,15.658,167.845,19.513,17.3,1.187,41.136,5.909,56.471-4.487,13.917-9.434,18.224-28.1,22.7-43.1,5.729-19.221,11.865-38.733,24.958-54.48,19.948-23.991,51.354-32.752,81.6-35.031,28.761-2.167,57.767.8,86.165,5.21,24.526,3.808,50.235,7.882,73.754,16.163,18.626,6.558,34.913,17.117,49.552,30.119,12.7,11.277,24.273,23.915,38.514,33.382,19.665,13.073,42.351,17.349,65.756,17.447" transform="translate(-53.125 -818.232)" fill="none" stroke="#bfbfbf" stroke-miterlimit="10" stroke-width="1"/>
        </g>
        <g id="Group_1172" data-name="Group 1172" transform="translate(0 73.947)">
          <path id="Path_875" data-name="Path 875" d="M53.125,897.415c53.7-.353,106.112-13.38,159.448-17.769,24.292-2,49.028-2.229,73.028,2.5a156.358,156.358,0,0,1,29.693,8.878c15.957,6.619,30.3,16.544,45.771,24.181,26.679,13.17,55.773,23.885,85.911,24.689,19.275.514,37.968-3.6,55.841-10.515,34.174-13.224,64.738-32.131,102.7-31.948,52.317.252,104.875,8.1,156.662,14.658,55.086,6.976,110.2,14.846,165.642,18.587,11.091.749,22.261,1.492,33.383,1.463,8.035-.021,15.945-1.079,22.886-5.353,13.688-8.428,18.945-25.4,24.046-39.558,6.412-17.794,13.147-35.732,26.055-50.069,19.834-22.031,49.765-30.041,78.591-32.095,27.146-1.935,54.493.819,81.3,4.943,23.677,3.643,48.141,7.812,71.128,14.783,19.369,5.874,36.926,15.41,53.259,27.137,14.273,10.249,27.723,21.715,43.256,30.134,21.4,11.595,44.973,15.461,69.173,15.353" transform="translate(-53.125 -804.432)" fill="none" stroke="#bfbfbf" stroke-miterlimit="10" stroke-width="1"/>
        </g>
        <g id="Group_1173" data-name="Group 1173" transform="translate(0 70.152)">
          <path id="Path_876" data-name="Path 876" d="M53.125,873.658c53.465-.322,105.838-12.272,159-16.292,24.321-1.839,49.015-2.036,73.092,2.293a170.574,170.574,0,0,1,29.918,8.14c15.662,5.895,29.752,15.115,44.889,22.171,26.43,12.32,54.992,21.914,84.463,22.637,19.363.475,38.254-3.326,56.458-9.641,34.8-12.074,66.65-29.5,104.581-29.289,51.556.293,103.308,7.563,154.395,13.705,54.087,6.5,108.2,13.81,162.6,17.307,17.4,1.119,40.014,5.409,56.1-3.278,13.577-7.334,19.986-22.5,25.943-35.78,7.3-16.27,14.812-32.611,27.685-45.431,20.025-19.941,48.553-27.138,76.158-28.912,25.638-1.647,51.427.93,76.744,4.808,22.85,3.5,46.189,7.674,68.606,13.447,20.152,5.19,38.933,13.7,56.839,24.1,15.819,9.186,31.056,19.428,47.869,26.826,22.964,10.1,47.442,13.531,72.449,13.193" transform="translate(-53.125 -790.78)" fill="none" stroke="#bfbfbf" stroke-miterlimit="10" stroke-width="1"/>
        </g>
        <g id="Group_1174" data-name="Group 1174" transform="translate(0 66.282)">
          <path id="Path_877" data-name="Path 877" d="M53.125,849.707c53.238-.292,105.562-11.164,158.548-14.815,24.349-1.677,49.006-1.844,73.155,2.085a188.01,188.01,0,0,1,30.142,7.4c15.353,5.2,29.193,13.688,44.007,20.161,26.174,11.436,54.209,19.941,83.014,20.584,19.465.435,38.552-3.05,57.075-8.767,35.434-10.936,68.485-26.833,106.452-26.634,50.567.265,101.282,6.836,151.449,12.468,52.861,5.934,105.743,12.592,158.872,15.743,17.54,1.04,39.416,4.91,55.968-2.667,13.568-6.211,21.278-19.51,28.321-31.843,8.379-14.672,16.832-29.346,29.784-40.637,20.378-17.765,47.7-24.111,74.23-25.562,24.224-1.324,48.544,1.106,72.46,4.765,15.632,2.391,31.029,6.562,46.663,8.724q9.808,1.356,19.5,3.424c20.964,4.513,40.913,11.992,60.265,21.046,17.32,8.1,34.246,17.1,52.324,23.5,24.37,8.638,49.745,11.6,75.55,11.02" transform="translate(-53.125 -776.859)" fill="none" stroke="#bfbfbf" stroke-miterlimit="10" stroke-width="1"/>
        </g>
        <g id="Group_1175" data-name="Group 1175" transform="translate(0 62.22)">
          <path id="Path_878" data-name="Path 878" d="M53.125,825.258c53.018-.262,105.286-10.055,158.1-13.338,24.377-1.515,49-1.652,73.218,1.877a209.7,209.7,0,0,1,30.367,6.664c15.029,4.537,28.624,12.266,43.125,18.151,25.909,10.515,53.421,17.964,81.566,18.532,19.579.395,38.864-2.772,57.692-7.893,36.07-9.809,70.243-24.126,108.318-23.981,49.407.188,98.915,5.968,147.993,11.015,51.466,5.294,102.95,11.234,154.64,13.966,17.72.937,38.868,4.305,55.9-2.073,13.661-5.117,22.769-16.535,31.114-27.82,9.6-12.99,19.137-25.981,32.286-35.759,20.858-15.51,47.1-21.017,72.738-22.121,22.886-.986,45.818,1.314,68.409,4.769,14.63,2.237,29.187,6.393,43.868,8.032q9.993,1.115,19.9,2.849c21.785,3.833,42.846,10.3,63.51,18.028,18.764,7.018,37.271,14.766,56.593,20.218,25.613,7.228,51.865,9.706,78.446,8.885" transform="translate(-53.125 -762.248)" fill="none" stroke="#bfbfbf" stroke-miterlimit="10" stroke-width="1"/>
        </g>
        <g id="Group_1176" data-name="Group 1176" transform="translate(0 57.852)">
          <path id="Path_879" data-name="Path 879" d="M53.125,800.012c52.8-.232,105.007-8.945,157.647-11.861,24.4-1.352,49-1.462,73.281,1.669a237.2,237.2,0,0,1,30.592,5.926c14.692,3.9,28.047,10.849,42.244,16.141,25.635,9.555,52.628,15.986,80.118,16.48,19.7.354,39.187-2.491,58.309-7.019,36.707-8.692,71.93-21.394,110.181-21.329,98.366.167,196.09,17.025,294.264,21.466,17.925.811,38.419,3.647,55.892-1.51,13.883-4.1,24.439-13.693,34.255-23.787,10.922-11.231,21.649-22.547,35.127-30.871,21.391-13.21,46.7-17.92,71.613-18.669,21.611-.649,43.225,1.526,64.556,4.779,13.653,2.083,27.415,6.152,41.152,7.346q10.154.882,20.252,2.295c22.6,3.173,44.7,8.639,66.543,15.09,20.137,5.946,40.114,12.478,60.645,17.014a318.016,318.016,0,0,0,81.1,6.839" transform="translate(-53.125 -746.534)" fill="none" stroke="#bfbfbf" stroke-miterlimit="10" stroke-width="1"/>
        </g>
        <g id="Group_1177" data-name="Group 1177" transform="translate(0 53.064)">
          <path id="Path_880" data-name="Path 880" d="M53.125,773.677c52.6-.2,104.727-7.834,157.2-10.384,24.432-1.187,49.011-1.273,73.345,1.461a273.1,273.1,0,0,1,30.817,5.188c14.341,3.3,27.465,9.442,41.362,14.131,45.234,15.262,90.922,17.761,137.595,8.283,37.344-7.584,73.549-18.645,112.042-18.678,95.4-.08,190.285,14.3,285.551,17.805,18.141.667,38.106,2.987,55.972-.995,14.275-3.181,26.291-11.065,37.678-19.816,12.272-9.431,24.284-19.086,38.244-26.044,21.9-10.916,46.439-14.884,70.785-15.283,20.383-.334,40.737,1.711,60.863,4.754,12.709,1.922,25.689,5.825,38.5,6.65q10.289.662,20.542,1.773c23.384,2.536,46.438,7.034,69.337,12.278,21.427,4.906,42.759,10.272,64.453,13.94a394.963,394.963,0,0,0,83.495,4.937" transform="translate(-53.125 -729.311)" fill="none" stroke="#bfbfbf" stroke-miterlimit="10" stroke-width="1"/>
        </g>
        <g id="Group_1178" data-name="Group 1178" transform="translate(0 47.749)">
          <path id="Path_881" data-name="Path 881" d="M53.125,745.974c52.4-.173,104.445-6.722,156.747-8.907,24.457-1.022,49.022-1.086,73.408,1.253,10.411,1,20.78,2.443,31.042,4.45,13.977,2.734,26.882,8.047,40.48,12.121,45.062,13.5,90.567,14.991,136.763,7.1,37.979-6.483,75.107-15.892,113.9-16.027,92.442-.32,184.48,11.561,276.829,14.142,18.363.513,37.941,2.368,56.148-.541,14.871-2.376,28.335-8.684,41.317-15.983,13.605-7.649,26.956-15.66,41.571-21.351,22.329-8.693,46.277-11.969,70.185-12.042a378.414,378.414,0,0,1,57.291,4.651c11.789,1.771,23.99,5.4,35.89,5.925q10.392.461,20.764,1.294c24.122,1.935,48.039,5.514,71.866,9.639,51.175,8.861,101.381,16.787,153.572,14.27" transform="translate(-53.125 -710.193)" fill="none" stroke="#bfbfbf" stroke-miterlimit="10" stroke-width="1"/>
        </g>
        <g id="Group_1179" data-name="Group 1179" transform="translate(0 41.809)">
          <path id="Path_882" data-name="Path 882" d="M53.125,716.648c52.2-.143,104.16-5.609,156.3-7.43,24.482-.855,49.038-.9,73.472,1.046,10.466.833,20.9,2.038,31.267,3.712,13.6,2.2,26.3,6.667,39.6,10.11,44.874,11.622,90.21,12.31,135.932,5.926,38.609-5.39,76.609-13.147,115.766-13.375,89.595-.522,178.9,8.91,268.437,10.616,18.593.354,37.924,1.814,56.434-.165,15.675-1.676,30.557-6.551,45.106-12.362,14.9-5.951,29.6-12.35,45.045-16.864,22.638-6.617,46.171-9.237,69.741-9.023a402.116,402.116,0,0,1,53.8,4.428c10.917,1.578,22.284,4.856,33.306,5.156q10.461.285,20.911.871c24.8,1.385,49.473,4.108,74.1,7.218,52.848,6.675,105.158,12.8,158.562,10.135" transform="translate(-53.125 -688.828)" fill="none" stroke="#bfbfbf" stroke-miterlimit="10" stroke-width="1"/>
        </g>
        <g id="Group_1180" data-name="Group 1180" transform="translate(0 35.156)">
          <path id="Path_883" data-name="Path 883" d="M53.125,685.468c52.016-.115,103.873-4.5,155.846-5.953,24.507-.687,49.06-.716,73.535.838,10.525.668,21.032,1.633,31.492,2.974,13.212,1.694,25.727,5.3,38.717,8.1,44.685,9.622,89.83,9.714,135.1,4.748,39.234-4.3,78.061-10.423,117.632-10.722,86.975-.655,173.764,6.411,260.709,7.37,18.833.208,38.051,1.333,56.842.117,16.658-1.078,32.922-4.663,48.979-9.026,16.159-4.391,32.186-9.24,48.6-12.657a311.7,311.7,0,0,1,69.387-6.306A438.9,438.9,0,0,1,1140.33,669c10.076,1.357,20.564,4.189,30.73,4.325q10.491.14,20.977.515c25.386.9,50.711,2.849,76.01,5.063,54.282,4.751,108.309,9.218,162.856,6.569" transform="translate(-53.125 -664.894)" fill="none" stroke="#bfbfbf" stroke-miterlimit="10" stroke-width="1"/>
        </g>
        <g id="Group_1181" data-name="Group 1181" transform="translate(0 27.731)">
          <path id="Path_884" data-name="Path 884" d="M53.125,652.285c51.837-.086,103.583-3.381,155.4-4.476,24.53-.518,49.086-.535,73.6.63,10.588.5,21.165,1.229,31.717,2.236,12.819,1.224,25.16,3.958,37.835,6.09,44.505,7.488,89.407,7.2,134.269,3.57,39.854-3.225,79.468-7.738,119.5-8.066,84.7-.694,169.3,4.174,253.983,4.544,19.087.083,38.321.922,57.387.291,17.77-.588,35.376-3.03,52.87-6.051,40.36-6.969,80.038-13.773,121.222-12.768,15.69.383,31.355,1.6,46.935,3.456,9.255,1.1,18.82,3.387,28.142,3.415q10.477.033,20.953.238c25.878.5,51.73,1.775,77.569,3.218,55.464,3.1,110.832,6.106,166.4,3.672" transform="translate(-53.125 -638.186)" fill="none" stroke="#bfbfbf" stroke-miterlimit="10" stroke-width="1"/>
        </g>
        <g id="Group_1182" data-name="Group 1182" transform="translate(0 19.421)">
          <path id="Path_885" data-name="Path 885" d="M53.125,616.8c51.666-.057,103.291-2.266,154.946-3,24.553-.348,49.117-.355,73.662.422,23.2.735,45.876,2.878,68.9,5.579,84.951,9.968,169.763-2.385,254.819-3.016,82.88-.615,165.72,2.3,248.6,2.281,38.453-.007,76.461.548,114.794-3.17,41.428-4.018,82.649-8.486,124.36-7.454q21.778.539,43.479,2.622c8.438.8,17.049,2.435,25.526,2.409q10.417-.031,20.833.051c26.257.2,52.506.919,78.75,1.731,56.373,1.743,112.724,3.51,169.118,1.545" transform="translate(-53.125 -608.295)" fill="none" stroke="#bfbfbf" stroke-miterlimit="10" stroke-width="1"/>
        </g>
        <g id="Group_1183" data-name="Group 1183" transform="translate(0 10.189)">
          <path id="Path_886" data-name="Path 886" d="M53.125,578.927c98.81-.056,197.765-4.6,296.459,1.523,85.241,5.291,170.591-1.121,255.873-1.533,81.631-.394,163.254.876,244.884.721,39.83-.075,79.565.394,119.379-1.228,42.411-1.728,84.8-3.923,127.265-3.173,27.86.493,55.568,2.728,83.428,2.757,26.509.028,53.017.317,79.523.646,56.989.708,113.977,1.473,170.965.285" transform="translate(-53.125 -575.087)" fill="none" stroke="#bfbfbf" stroke-miterlimit="10" stroke-width="1"/>
        </g>
        <g id="Group_1184" data-name="Group 1184">
          <path id="Path_887" data-name="Path 887" d="M53.125,538.565q276.178,0,552.354,0,248.473-.043,496.947-.09,164.238.114,328.476.09" transform="translate(-53.125 -538.436)" fill="none" stroke="#bfbfbf" stroke-miterlimit="10" stroke-width="1"/>
        </g>
      </g>
    </g>
  </g>
</svg>
